<?xml version="1.0" encoding="utf-8" standalone="yes"?>
<!DOCTYPE svg PUBLIC "-//W3C//DTD SVG 1.1//EN" "http://www.w3.org/Graphics/SVG/1.1/DTD/svg11.dtd">
<svg width="900" height="228" viewBox="0 0 900 228" style="fill:none;stroke:none;fill-rule:evenodd;clip-rule:evenodd;stroke-linecap:round;stroke-linejoin:round;stroke-miterlimit:1.5;" version="1.1" xmlns="http://www.w3.org/2000/svg" xmlns:xlink="http://www.w3.org/1999/xlink"><style id="fontImports">@import url("https://fonts.googleapis.com/css2?family=Roboto:wght@400;700&amp;display=block");</style><rect id="" x="0" y="0" width="900" height="228" style="fill: #2c2c2c;"></rect><g id="items" style="isolation: isolate"><g id="blend" style="mix-blend-mode:screen"><g id="g-root-2.cu_sy_90v9af1s4u7f3-fill" data-item-order="-20156" data-item-id="2.cu_sy_90v9af1s4u7f3" data-item-class="Part Indexed Fill Stroke" data-item-index="2" data-renderer-id="0" transform="translate(462, 80)"><g id="2.cu_sy_90v9af1s4u7f3-fill" stroke="none" fill="#224754"><g><path d="M 83 70C 87.95 70 92.518 68.402 96.194 65.706C 97.782 66.533 99.586 67 101.5 67C 107.851 67 113 61.851 113 55.5C 113 52.514 111.862 49.794 109.996 47.75C 112.435 45.827 114 42.846 114 39.5C 114 37.08 113.181 34.852 111.806 33.076C 111.934 32.237 112 31.376 112 30.5C 112 21.387 104.837 14 96 14C 95.01 14 94.04 14.093 93.099 14.27C 90.011 11.613 85.95 10 81.5 10C 76.933 10 72.774 11.7 69.658 14.483C 68.661 14.169 67.6 14 66.5 14C 60.701 14 56 18.701 56 24.5C 56 27.072 56.925 29.428 58.46 31.254C 56.915 33.417 56 36.098 56 39C 56 41.302 56.575 43.464 57.584 45.339C 55.359 47.746 54 50.964 54 54.5C 54 61.956 60.044 68 67.5 68C 69.122 68 70.677 67.714 72.118 67.19C 75.327 68.978 79.041 70 83 70ZM 28 40C 28 44.418278 31.581722 48 36 48C 40.418278 48 44 44.418278 44 40C 44 35.581722 40.418278 32 36 32C 31.581722 32 28 35.581722 28 40M 18 40C 18 42.209137 16.209167 44 14 44C 11.790863 44 10 42.209137 10 40C 10 37.790863 11.790863 36 14 36C 16.209167 36 18 37.790863 18 40"></path></g></g></g><g id="g-root-1.cu_sy_hwi9jb1s4u6me-fill" data-item-order="-20154" data-item-id="1.cu_sy_hwi9jb1s4u6me" data-item-class="Part Indexed Indexed_1 Fill Stroke" data-item-index="1" data-renderer-id="0" transform="translate(230, 80)"><g id="1.cu_sy_hwi9jb1s4u6me-fill" stroke="none" fill="#404b29"><g><path d="M 20.598 19C 20.565 19 20.533 19 20.5 19C 14.701 19 10 23.701 10 29.5C 10 32.574 11.321 35.339 13.426 37.259C 13.147 38.459 13 39.712 13 41C 13 41.745 13.049 42.478 13.145 43.196C 11.788 45.301 11 47.809 11 50.5C 11 57.956 17.044 64 24.5 64C 24.847 64 25.19 63.987 25.53 63.961C 29.172 67.682 34.308 70 40 70C 45.641 70 50.737 67.723 54.373 64.059C 55.621 64.662 57.021 65 58.5 65C 63.747 65 68 60.747 68 55.5C 68 52.628 66.726 50.055 64.712 48.313C 67.948 45.469 70 41.232 70 36.5C 70 32.425 68.478 28.717 65.99 25.95C 65.996 25.801 66 25.651 66 25.5C 66 20.253 61.747 16 56.5 16C 55.92 16 55.353 16.052 54.802 16.151C 50.681 12.338 45.12 10 39 10C 31.475 10 24.794 13.535 20.598 19ZM 80 40C 80 44.418278 83.581722 48 88 48C 92.418278 48 96 44.418278 96 40C 96 35.581722 92.418278 32 88 32C 83.581722 32 80 35.581722 80 40M 114 40C 114 42.209137 112.209137 44 110 44C 107.790863 44 106 42.209137 106 40C 106 37.790863 107.790863 36 110 36C 112.209137 36 114 37.790863 114 40"></path></g></g></g><g id="g-root-tx_commentc_92qojr1s4u6fg-fill" data-item-order="0" data-item-id="tx_commentc_92qojr1s4u6fg" data-item-class="Label Stroke Title ColorFillGray ColorStrokeGray" data-item-index="none" data-renderer-id="0" transform="translate(230, 2)"><g id="tx_commentc_92qojr1s4u6fg-fill" stroke="none" fill="#A3A3A3"><g><text style="font: bold 20px Roboto, sans-serif; white-space: pre;"><tspan x="11.8" y="34" dominant-baseline="ideographic">Comment concevoir l'architecture du </tspan><tspan x="131.08" y="58" dominant-baseline="ideographic">système ?</tspan></text></g></g></g><g id="g-root-face_8cmh31s4x0y7-fill" data-item-order="0" data-item-id="face_8cmh31s4x0y7" data-item-class="Icon Stroke Indexed Indexed_0 ColorFillGray ColorStrokeGray" data-item-index="0" data-renderer-id="0" transform="translate(362, 74)"></g><g id="g-root-tx_architec_mdkptz1s4u80b-fill" data-item-order="0" data-item-id="tx_architec_mdkptz1s4u80b" data-item-class="Label Stroke Indexed Indexed_1 ColorFillGray ColorStrokeGray" data-item-index="1" data-renderer-id="0" transform="translate(2, 98)"><g id="tx_architec_mdkptz1s4u80b-fill" stroke="none" fill="#A3A3A3"><g><text style="font: bold 20px Roboto, sans-serif; white-space: pre;"><tspan x="13.17" y="34" dominant-baseline="ideographic">Architecture modulable</tspan></text></g></g></g><g id="g-root-2_1cw4eyv1s4yfpl-fill" data-item-order="0" data-item-id="2_1cw4eyv1s4yfpl" data-item-class="Icon Stroke Indexed Indexed_1 InsideFill InsideColorFill" data-item-index="1" data-renderer-id="0" transform="translate(242, 92)"></g><g id="g-root-zoom_1q7kxc71s4ye4o-fill" data-item-order="0" data-item-id="zoom_1q7kxc71s4ye4o" data-item-class="Icon Stroke Indexed InsideFill InsideColorFill" data-item-index="2" data-renderer-id="0" transform="translate(518, 92)"></g><g id="g-root-tx_optimisa_1qbbruv1s4u6fd-fill" data-item-order="0" data-item-id="tx_optimisa_1qbbruv1s4u6fd" data-item-class="Label Stroke Indexed ColorFillGray ColorStrokeGray" data-item-index="2" data-renderer-id="0" transform="translate(578, 98)"><g id="tx_optimisa_1qbbruv1s4u6fd-fill" stroke="none" fill="#A3A3A3"><g><text style="font: bold 20px Roboto, sans-serif; white-space: pre;"><tspan x="12" y="34" dominant-baseline="ideographic">Optimisation des fonctionnalités</tspan></text></g></g></g><g id="g-root-tx_permetla_18k1rd31s4u8si-fill" data-item-order="0" data-item-id="tx_permetla_18k1rd31s4u8si" data-item-class="Label Stroke Indexed Indexed_1" data-item-index="1" data-renderer-id="0" transform="translate(2, 134)"><g id="tx_permetla_18k1rd31s4u8si-fill" stroke="none" fill="#A3A3A3"><g><text style="font: 20px Roboto, sans-serif; white-space: pre;"><tspan x="21.69" y="34" dominant-baseline="ideographic">Permet l'ajout facile de </tspan><tspan x="42.02" y="58" dominant-baseline="ideographic">nouvelles sources et </tspan><tspan x="112.77" y="82" dominant-baseline="ideographic">algorithmes.</tspan></text></g></g></g><g id="g-root-tx_assureun_4l1r5z1s4u87c-fill" data-item-order="0" data-item-id="tx_assureun_4l1r5z1s4u87c" data-item-class="Label Stroke Indexed" data-item-index="2" data-renderer-id="0" transform="translate(578, 134)"><g id="tx_assureun_4l1r5z1s4u87c-fill" stroke="none" fill="#A3A3A3"><g><text style="font: 20px Roboto, sans-serif; white-space: pre;"><tspan x="12" y="34" dominant-baseline="ideographic">Assure une gestion efficace </tspan><tspan x="12" y="58" dominant-baseline="ideographic">des grandes volumétries de </tspan><tspan x="12" y="82" dominant-baseline="ideographic">données.</tspan></text></g></g></g><g id="g-root-2.cu_sy_90v9af1s4u7f3-stroke" data-item-order="-20156" data-item-id="2.cu_sy_90v9af1s4u7f3" data-item-class="Part Indexed Fill Stroke" data-item-index="2" data-renderer-id="0" transform="translate(462, 80)"><g id="2.cu_sy_90v9af1s4u7f3-stroke" fill="none" stroke-linecap="round" stroke-linejoin="round" stroke-miterlimit="4" stroke="#1AC6FF" stroke-width="2"><g><path d="M 83 70C 87.95 70 92.518 68.402 96.194 65.706C 97.782 66.533 99.586 67 101.5 67C 107.851 67 113 61.851 113 55.5C 113 52.514 111.862 49.794 109.996 47.75C 112.435 45.827 114 42.846 114 39.5C 114 37.08 113.181 34.852 111.806 33.076C 111.934 32.237 112 31.376 112 30.5C 112 21.387 104.837 14 96 14C 95.01 14 94.04 14.093 93.099 14.27C 90.011 11.613 85.95 10 81.5 10C 76.933 10 72.774 11.7 69.658 14.483C 68.661 14.169 67.6 14 66.5 14C 60.701 14 56 18.701 56 24.5C 56 27.072 56.925 29.428 58.46 31.254C 56.915 33.417 56 36.098 56 39C 56 41.302 56.575 43.464 57.584 45.339C 55.359 47.746 54 50.964 54 54.5C 54 61.956 60.044 68 67.5 68C 69.122 68 70.677 67.714 72.118 67.19C 75.327 68.978 79.041 70 83 70ZM 28 40C 28 44.418278 31.581722 48 36 48C 40.418278 48 44 44.418278 44 40C 44 35.581722 40.418278 32 36 32C 31.581722 32 28 35.581722 28 40M 18 40C 18 42.209137 16.209167 44 14 44C 11.790863 44 10 42.209137 10 40C 10 37.790863 11.790863 36 14 36C 16.209167 36 18 37.790863 18 40"></path></g></g></g><g id="g-root-1.cu_sy_hwi9jb1s4u6me-stroke" data-item-order="-20154" data-item-id="1.cu_sy_hwi9jb1s4u6me" data-item-class="Part Indexed Indexed_1 Fill Stroke" data-item-index="1" data-renderer-id="0" transform="translate(230, 80)"><g id="1.cu_sy_hwi9jb1s4u6me-stroke" fill="none" stroke-linecap="round" stroke-linejoin="round" stroke-miterlimit="4" stroke="#A8DD38" stroke-width="2"><g><path d="M 20.598 19C 20.565 19 20.533 19 20.5 19C 14.701 19 10 23.701 10 29.5C 10 32.574 11.321 35.339 13.426 37.259C 13.147 38.459 13 39.712 13 41C 13 41.745 13.049 42.478 13.145 43.196C 11.788 45.301 11 47.809 11 50.5C 11 57.956 17.044 64 24.5 64C 24.847 64 25.19 63.987 25.53 63.961C 29.172 67.682 34.308 70 40 70C 45.641 70 50.737 67.723 54.373 64.059C 55.621 64.662 57.021 65 58.5 65C 63.747 65 68 60.747 68 55.5C 68 52.628 66.726 50.055 64.712 48.313C 67.948 45.469 70 41.232 70 36.5C 70 32.425 68.478 28.717 65.99 25.95C 65.996 25.801 66 25.651 66 25.5C 66 20.253 61.747 16 56.5 16C 55.92 16 55.353 16.052 54.802 16.151C 50.681 12.338 45.12 10 39 10C 31.475 10 24.794 13.535 20.598 19ZM 80 40C 80 44.418278 83.581722 48 88 48C 92.418278 48 96 44.418278 96 40C 96 35.581722 92.418278 32 88 32C 83.581722 32 80 35.581722 80 40M 114 40C 114 42.209137 112.209137 44 110 44C 107.790863 44 106 42.209137 106 40C 106 37.790863 107.790863 36 110 36C 112.209137 36 114 37.790863 114 40"></path></g></g></g><g id="g-root-tx_commentc_92qojr1s4u6fg-stroke" data-item-order="0" data-item-id="tx_commentc_92qojr1s4u6fg" data-item-class="Label Stroke Title ColorFillGray ColorStrokeGray" data-item-index="none" data-renderer-id="0" transform="translate(230, 2)"></g><g id="g-root-face_8cmh31s4x0y7-stroke" data-item-order="0" data-item-id="face_8cmh31s4x0y7" data-item-class="Icon Stroke Indexed Indexed_0 ColorFillGray ColorStrokeGray" data-item-index="0" data-renderer-id="0" transform="translate(362, 74)"><g id="face_8cmh31s4x0y7-stroke" fill="none" stroke-linecap="round" stroke-linejoin="round" stroke-miterlimit="4" stroke="#A3A3A3" stroke-width="2"><g><path d="M 46.599998 39.681999C 43.599998 36.681999 37.599998 35.181999 34.599998 38.181999M 16.9 45.681999C 16.6 44.482002 16.6 43.281998 16.6 41.781998C 16.6 25.581999 29.799999 12.382 46 12.382C 62.199997 12.382 75.399994 25.581999 75.399994 41.781998C 75.399994 52.582001 69.699997 61.882004 61 66.981995M 40.449997 77.800003C 46.449997 75.399994 45.324997 70.111 44.125 65.311005L 53.677002 61.612C 55.891281 60.755096 57.049278 58.316589 56.314003 56.059002L 56.313999 56.058998C 55.93375 54.891376 55.08989 53.931606 53.980541 53.405022C 52.871193 52.878433 51.594067 52.831413 50.449001 53.275002L 32.875 60.084999C 31.375 60.685001 29.575001 59.485001 29.575001 57.985001L 29.458 55.144001C 29.410076 53.986492 28.88414 52.900726 28.005583 52.145561C 27.127028 51.390404 25.974579 51.03352 24.823002 51.160004L 24.823 51.16C 22.704519 51.393932 21.100885 53.183647 21.1 55.315002L 21.1 67.584999C 21.1 75.385002 28.299999 81.084999 35.800003 79.284996C 35.800003 79.284996 38.949997 78.399994 40.449997 77.800003ZM 31.825001 27.681999C 31.20368 27.681999 30.700001 27.178322 30.700001 26.556999C 30.700001 25.93568 31.20368 25.431999 31.825001 25.431999M 31.825001 27.681999C 32.44632 27.681999 32.950001 27.178322 32.950001 26.556999C 32.950001 25.93568 32.44632 25.431999 31.825001 25.431999M 47.800003 27.681999C 47.17868 27.681999 46.675003 27.178322 46.675003 26.556999C 46.675003 25.93568 47.17868 25.431999 47.800003 25.431999M 47.800003 27.681999C 48.421322 27.681999 48.925003 27.178322 48.925003 26.556999C 48.925003 25.93568 48.421322 25.431999 47.800003 25.431999"></path></g></g></g><g id="g-root-tx_architec_mdkptz1s4u80b-stroke" data-item-order="0" data-item-id="tx_architec_mdkptz1s4u80b" data-item-class="Label Stroke Indexed Indexed_1 ColorFillGray ColorStrokeGray" data-item-index="1" data-renderer-id="0" transform="translate(2, 98)"></g><g id="g-root-2_1cw4eyv1s4yfpl-stroke" data-item-order="0" data-item-id="2_1cw4eyv1s4yfpl" data-item-class="Icon Stroke Indexed Indexed_1 InsideFill InsideColorFill" data-item-index="1" data-renderer-id="0" transform="translate(242, 92)"><g id="2_1cw4eyv1s4yfpl-stroke" fill="none" stroke-linecap="round" stroke-linejoin="round" stroke-miterlimit="4" stroke="#A8DD38" stroke-width="2"><g><path d="M 12.25 10.7455L 42.25 10.7455C 42.25 10.7455 43.75 10.7455 43.75 12.2455L 43.75 42.245499C 43.75 42.245499 43.75 43.745499 42.25 43.745499L 12.25 43.745499C 12.25 43.745499 10.75 43.745499 10.75 42.245499L 10.75 12.2455C 10.75 12.2455 10.75 10.7455 12.25 10.7455M 27.25 10.7455L 27.25 43.745499M 43.75 27.245499L 10.75 27.245499"></path></g></g></g><g id="g-root-zoom_1q7kxc71s4ye4o-stroke" data-item-order="0" data-item-id="zoom_1q7kxc71s4ye4o" data-item-class="Icon Stroke Indexed InsideFill InsideColorFill" data-item-index="2" data-renderer-id="0" transform="translate(518, 92)"><g id="zoom_1q7kxc71s4ye4o-stroke" fill="none" stroke-linecap="round" stroke-linejoin="round" stroke-miterlimit="4" stroke="#1AC6FF" stroke-width="2"><g><path d="M 21.549999 21.744999C 24.316586 20.626518 27.279785 20.075605 30.2635 20.125C 33.143433 20.083014 36.004822 20.592157 38.693504 21.625L 43.75 21.625C 44.578426 21.625 45.25 22.296572 45.25 23.125L 45.25 29.125C 45.25 29.953428 44.578426 30.625 43.75 30.625L 38.692001 30.625C 36.003323 31.657845 33.141933 32.166988 30.262001 32.125C 27.278788 32.174194 24.31612 31.623283 21.549999 30.505001M 18.261999 30.625L 12.25 30.625C 11.421573 30.625 10.75 29.953428 10.75 29.125L 10.75 23.125C 10.75 22.296572 11.421573 21.625 12.25 21.625L 18.261999 21.625M 15.25 24.625L 15.25 27.625M 20.511999 26.125C 20.512001 31.509777 24.877224 35.875 30.262001 35.875C 35.646774 35.875 40.012001 31.509777 40.012001 26.125C 40.012001 20.740225 35.646774 16.375 30.262001 16.375C 24.877224 16.375 20.512001 20.740225 20.512001 26.125ZM 37.155998 33.019001L 43.762001 39.625"></path></g></g></g><g id="g-root-tx_optimisa_1qbbruv1s4u6fd-stroke" data-item-order="0" data-item-id="tx_optimisa_1qbbruv1s4u6fd" data-item-class="Label Stroke Indexed ColorFillGray ColorStrokeGray" data-item-index="2" data-renderer-id="0" transform="translate(578, 98)"></g><g id="g-root-tx_permetla_18k1rd31s4u8si-stroke" data-item-order="0" data-item-id="tx_permetla_18k1rd31s4u8si" data-item-class="Label Stroke Indexed Indexed_1" data-item-index="1" data-renderer-id="0" transform="translate(2, 134)"></g><g id="g-root-tx_assureun_4l1r5z1s4u87c-stroke" data-item-order="0" data-item-id="tx_assureun_4l1r5z1s4u87c" data-item-class="Label Stroke Indexed" data-item-index="2" data-renderer-id="0" transform="translate(578, 134)"></g></g></g></svg>