<?xml version="1.0" encoding="utf-8" standalone="yes"?>
<!DOCTYPE svg PUBLIC "-//W3C//DTD SVG 1.1//EN" "http://www.w3.org/Graphics/SVG/1.1/DTD/svg11.dtd">
<svg width="780" height="469" viewBox="0 0 780 469" style="fill:none;stroke:none;fill-rule:evenodd;clip-rule:evenodd;stroke-linecap:round;stroke-linejoin:round;stroke-miterlimit:1.5;" version="1.1" xmlns="http://www.w3.org/2000/svg" xmlns:xlink="http://www.w3.org/1999/xlink"><style id="fontImports">@import url("https://fonts.googleapis.com/css2?family=Roboto:wght@400;700&amp;display=block");</style><rect id="" x="0" y="0" width="780" height="469" style="fill: #2c2c2c;"></rect><g id="items" style="isolation: isolate"><g id="blend" style="mix-blend-mode:screen"><g id="g-root-ro_hvw86f1rau1vr-fill" data-item-order="-21168" data-item-id="ro_hvw86f1rau1vr" data-item-class="Shape Stroke Fill" data-item-index="none" data-renderer-id="0" transform="translate(362, 162)"><g id="ro_hvw86f1rau1vr-fill" stroke="none" fill="#505050"><g><path d="M 34 10L 154 10C 154 10 178 10 178 34L 178 112C 178 112 178 136 154 136L 34 136C 34 136 10 136 10 112L 10 34C 10 34 10 10 34 10"></path></g></g></g><g id="g-root-ro_1lwrnmv1rawt1r-fill" data-item-order="-12960" data-item-id="ro_1lwrnmv1rawt1r" data-item-class="Shape Stroke Fill" data-item-index="none" data-renderer-id="0" transform="translate(74, 321)"><g id="ro_1lwrnmv1rawt1r-fill" stroke="none" fill="#562d69"><g><path d="M 22 10L 238 10C 238 10 250 10 250 22L 250 52C 250 52 250 64 238 64L 22 64C 22 64 10 64 10 52L 10 22C 10 22 10 10 22 10"></path></g></g></g><g id="g-root-ro_hu0sx31rawv7t-fill" data-item-order="-11664" data-item-id="ro_hu0sx31rawv7t" data-item-class="Shape Stroke Fill" data-item-index="none" data-renderer-id="0" transform="translate(98, 3)"><g id="ro_hu0sx31rawv7t-fill" stroke="none" fill="#2b503e"><g><path d="M 22 10L 214 10C 214 10 226 10 226 22L 226 52C 226 52 226 64 214 64L 22 64C 22 64 10 64 10 52L 10 22C 10 22 10 10 22 10"></path></g></g></g><g id="g-root-ro_meu3qf1rau29x-fill" data-item-order="-8424" data-item-id="ro_meu3qf1rau29x" data-item-class="Shape Stroke Fill" data-item-index="none" data-renderer-id="0" transform="translate(578, 87)"><g id="ro_meu3qf1rau29x-fill" stroke="none" fill="#293f64"><g><path d="M 22 10L 154 10C 154 10 166 10 166 22L 166 52C 166 52 166 64 154 64L 22 64C 22 64 10 64 10 52L 10 22C 10 22 10 10 22 10"></path></g></g></g><g id="g-root-ro_1ltna7b1ravegx-fill" data-item-order="-7776" data-item-id="ro_1ltna7b1ravegx" data-item-class="Shape Stroke Fill" data-item-index="none" data-renderer-id="0" transform="translate(578, 237)"><g id="ro_1ltna7b1ravegx-fill" stroke="none" fill="#5a3f27"><g><path d="M 22 10L 142 10C 142 10 154 10 154 22L 154 52C 154 52 154 64 142 64L 22 64C 22 64 10 64 10 52L 10 22C 10 22 10 10 22 10"></path></g></g></g><g id="g-root-cu_14644871rawt1d-fill" data-item-order="0" data-item-id="cu_14644871rawt1d" data-item-class="Curve Stroke ColorFillBlack ColorStrokeBlack" data-item-index="none" data-renderer-id="0" transform="translate(272, 57)"></g><g id="g-root-cu_14644871rawt1g-fill" data-item-order="0" data-item-id="cu_14644871rawt1g" data-item-class="Curve Stroke ColorFillBlack ColorStrokeBlack" data-item-index="none" data-renderer-id="0" transform="translate(272, 57)"></g><g id="g-root-cu_vah3zb1rawtu6-fill" data-item-order="0" data-item-id="cu_vah3zb1rawtu6" data-item-class="Curve Stroke ColorFillBlack ColorStrokeBlack" data-item-index="none" data-renderer-id="0" transform="translate(272, 57)"></g><g id="g-root-cu_zqam3r1rawtts-fill" data-item-order="0" data-item-id="cu_zqam3r1rawtts" data-item-class="Curve Stroke ColorFillBlack ColorStrokeBlack" data-item-index="none" data-renderer-id="0" transform="translate(272, 57)"></g><g id="g-root-cu_zqam3r1rawttu-fill" data-item-order="0" data-item-id="cu_zqam3r1rawttu" data-item-class="Curve Stroke ColorFillBlack ColorStrokeBlack" data-item-index="none" data-renderer-id="0" transform="translate(272, 57)"></g><g id="g-root-cu_qunluv1rawumk-fill" data-item-order="0" data-item-id="cu_qunluv1rawumk" data-item-class="Curve Stroke ColorFillBlack ColorStrokeBlack" data-item-index="none" data-renderer-id="0" transform="translate(272, 57)"></g><g id="g-root-tx_postgres_1utnm1z1ravg8y-fill" data-item-order="0" data-item-id="tx_postgres_1utnm1z1ravg8y" data-item-class="Label Stroke" data-item-index="none" data-renderer-id="0" transform="translate(146, 69)"><g id="tx_postgres_1utnm1z1ravg8y-fill" stroke="none" fill="#A3A3A3"><g><text style="font: 20px Roboto, sans-serif; white-space: pre;"><tspan x="17.23" y="34" dominant-baseline="ideographic">PostgreSQL</tspan></text></g></g></g><g id="g-root-tx_schmaopt_1ly0lt31ravh1n-fill" data-item-order="0" data-item-id="tx_schmaopt_1ly0lt31ravh1n" data-item-class="Label Stroke" data-item-index="none" data-renderer-id="0" transform="translate(98, 105)"><g id="tx_schmaopt_1ly0lt31ravh1n-fill" stroke="none" fill="#A3A3A3"><g><text style="font: 20px Roboto, sans-serif; white-space: pre;"><tspan x="15.52" y="34" dominant-baseline="ideographic">Schéma Optimisé</tspan></text></g></g></g><g id="g-root-1_zqam3r1rau0p0-fill" data-item-order="0" data-item-id="1_zqam3r1rau0p0" data-item-class="Icon Stroke" data-item-index="none" data-renderer-id="0" transform="translate(590, 99)"></g><g id="g-root-cu_1qcl5rb1rawt1c-fill" data-item-order="0" data-item-id="cu_1qcl5rb1rawt1c" data-item-class="Curve Stroke ColorFillBlack ColorStrokeBlack" data-item-index="none" data-renderer-id="0" transform="translate(530, 114)"></g><g id="g-root-tx_backend_14644871ratzwr-fill" data-item-order="0" data-item-id="tx_backend_14644871ratzwr" data-item-class="Label Stroke" data-item-index="none" data-renderer-id="0" transform="translate(626, 102)"><g id="tx_backend_14644871ratzwr-fill" stroke="none" fill="#4F92FF"><g><text style="font: 20px Roboto, sans-serif; white-space: pre;"><tspan x="16.81" y="34" dominant-baseline="ideographic">Back-end</tspan></text></g></g></g><g id="g-root-tx_tablespo_1ly0lt31ravh1o-fill" data-item-order="0" data-item-id="tx_tablespo_1ly0lt31ravh1o" data-item-class="Label Stroke" data-item-index="none" data-renderer-id="0" transform="translate(38, 141)"><g id="tx_tablespo_1ly0lt31ravh1o-fill" stroke="none" fill="#A3A3A3"><g><text style="font: 20px Roboto, sans-serif; white-space: pre;"><tspan x="15.02" y="34" dominant-baseline="ideographic">Tables pour les Marques</tspan></text></g></g></g><g id="g-root-cu_1d14ndz1rawumk-fill" data-item-order="0" data-item-id="cu_1d14ndz1rawumk" data-item-class="Curve Stroke ColorFillBlack ColorStrokeBlack" data-item-index="none" data-renderer-id="0" transform="translate(602, 141)"></g><g id="g-root-cu_18lb59j1rawvev-fill" data-item-order="0" data-item-id="cu_18lb59j1rawvev" data-item-class="Curve Stroke ColorFillBlack ColorStrokeBlack" data-item-index="none" data-renderer-id="0" transform="translate(602, 141)"></g><g id="g-root-tx_symfony_9402g71ravev4-fill" data-item-order="0" data-item-id="tx_symfony_9402g71ravev4" data-item-class="Label Stroke" data-item-index="none" data-renderer-id="0" transform="translate(626, 153)"><g id="tx_symfony_9402g71ravev4-fill" stroke="none" fill="#A3A3A3"><g><text style="font: 20px Roboto, sans-serif; white-space: pre;"><tspan x="13.14" y="34" dominant-baseline="ideographic">Symfony</tspan></text></g></g></g><g id="g-root-tx_tablespo_1hitkrr1raveo5-fill" data-item-order="0" data-item-id="tx_tablespo_1hitkrr1raveo5" data-item-class="Label Stroke" data-item-index="none" data-renderer-id="0" transform="translate(38, 177)"><g id="tx_tablespo_1hitkrr1raveo5-fill" stroke="none" fill="#A3A3A3"><g><text style="font: 20px Roboto, sans-serif; white-space: pre;"><tspan x="16.84" y="34" dominant-baseline="ideographic">Tables pour les Produits</tspan></text></g></g></g><g id="g-root-vr_v7cqjr1rau0au-fill" data-item-order="0" data-item-id="vr_v7cqjr1rau0au" data-item-class="Icon Stroke" data-item-index="none" data-renderer-id="0" transform="translate(422, 186)"></g><g id="g-root-tx_doctrine_8d27b1ravfnt-fill" data-item-order="0" data-item-id="tx_doctrine_8d27b1ravfnt" data-item-class="Label Stroke" data-item-index="none" data-renderer-id="0" transform="translate(626, 189)"><g id="tx_doctrine_8d27b1ravfnt-fill" stroke="none" fill="#A3A3A3"><g><text style="font: 20px Roboto, sans-serif; white-space: pre;"><tspan x="14.37" y="34" dominant-baseline="ideographic">Doctrine ORM</tspan></text></g></g></g><g id="g-root-tx_tablespo_18n6kiv1ravfgu-fill" data-item-order="0" data-item-id="tx_tablespo_18n6kiv1ravfgu" data-item-class="Label Stroke" data-item-index="none" data-renderer-id="0" transform="translate(2, 213)"><g id="tx_tablespo_18n6kiv1ravfgu-fill" stroke="none" fill="#A3A3A3"><g><text style="font: 20px Roboto, sans-serif; white-space: pre;"><tspan x="11.95" y="34" dominant-baseline="ideographic">Tables pour les Associations </tspan><tspan x="87.26" y="58" dominant-baseline="ideographic">Esthétiques</tspan></text></g></g></g><g id="g-root-cu_1d14ndz1rawumh-fill" data-item-order="0" data-item-id="cu_1d14ndz1rawumh" data-item-class="Curve Stroke ColorFillBlack ColorStrokeBlack" data-item-index="none" data-renderer-id="0" transform="translate(314, 246)"></g><g id="g-root-tx_technolo_zmjrl31rau2od-fill" data-item-order="0" data-item-id="tx_technolo_zmjrl31rau2od" data-item-class="Label Stroke" data-item-index="none" data-renderer-id="0" transform="translate(386, 240)"><g id="tx_technolo_zmjrl31rau2od-fill" stroke="none" fill="#A3A3A3"><g><text style="font: 20px Roboto, sans-serif; white-space: pre;"><tspan x="15.79" y="34" dominant-baseline="ideographic">Technologie</tspan></text></g></g></g><g id="g-root-cu_1hgy5if1rawtu6-fill" data-item-order="0" data-item-id="cu_1hgy5if1rawtu6" data-item-class="Curve Stroke ColorFillBlack ColorStrokeBlack" data-item-index="none" data-renderer-id="0" transform="translate(530, 246)"></g><g id="g-root-cu_1hgy5if1rawtu3-fill" data-item-order="0" data-item-id="cu_1hgy5if1rawtu3" data-item-class="Curve Stroke ColorFillBlack ColorStrokeBlack" data-item-index="none" data-renderer-id="0" transform="translate(314, 30)"></g><g id="g-root-saw_1q8ub8n1ravgug-fill" data-item-order="0" data-item-id="saw_1q8ub8n1ravgug" data-item-class="Icon Stroke" data-item-index="none" data-renderer-id="0" transform="translate(590, 249)"></g><g id="g-root-tx_scraping_1uontd31ravg27-fill" data-item-order="0" data-item-id="tx_scraping_1uontd31ravg27" data-item-class="Label Stroke" data-item-index="none" data-renderer-id="0" transform="translate(626, 252)"><g id="tx_scraping_1uontd31ravg27-fill" stroke="none" fill="#F99539"><g><text style="font: 20px Roboto, sans-serif; white-space: pre;"><tspan x="13.04" y="34" dominant-baseline="ideographic">Scraping</tspan></text></g></g></g><g id="g-root-cu_qunluv1rawumm-fill" data-item-order="0" data-item-id="cu_qunluv1rawumm" data-item-class="Curve Stroke ColorFillBlack ColorStrokeBlack" data-item-index="none" data-renderer-id="0" transform="translate(602, 291)"></g><g id="g-root-cu_meu3qf1rawvex-fill" data-item-order="0" data-item-id="cu_meu3qf1rawvex" data-item-class="Curve Stroke ColorFillBlack ColorStrokeBlack" data-item-index="none" data-renderer-id="0" transform="translate(602, 291)"></g><g id="g-root-tx_scrapy_zrjk9z1ravh1c-fill" data-item-order="0" data-item-id="tx_scrapy_zrjk9z1ravh1c" data-item-class="Label Stroke" data-item-index="none" data-renderer-id="0" transform="translate(626, 303)"><g id="tx_scrapy_zrjk9z1ravh1c-fill" stroke="none" fill="#A3A3A3"><g><text style="font: 20px Roboto, sans-serif; white-space: pre;"><tspan x="15.91" y="34" dominant-baseline="ideographic">Scrapy</tspan></text></g></g></g><g id="g-root-data_qpnt5z1rawuf4-fill" data-item-order="0" data-item-id="data_qpnt5z1rawuf4" data-item-class="Icon Stroke" data-item-index="none" data-renderer-id="0" transform="translate(272, 15)"></g><g id="g-root-tx_recherch_6hmxz1rawutp-fill" data-item-order="0" data-item-id="tx_recherch_6hmxz1rawutp" data-item-class="Label Stroke" data-item-index="none" data-renderer-id="0" transform="translate(86, 336)"><g id="tx_recherch_6hmxz1rawutp-fill" stroke="none" fill="#CD6AFB"><g><text style="font: 20px Roboto, sans-serif; white-space: pre;"><tspan x="15.77" y="34" dominant-baseline="ideographic">Recherche d'image</tspan></text></g></g></g><g id="g-root-eyee_1urs6sn1rawveu-fill" data-item-order="0" data-item-id="eyee_1urs6sn1rawveu" data-item-class="Icon Stroke" data-item-index="none" data-renderer-id="0" transform="translate(272, 333)"></g><g id="g-root-tx_beautifu_qwj1471raveo9-fill" data-item-order="0" data-item-id="tx_beautifu_qwj1471raveo9" data-item-class="Label Stroke" data-item-index="none" data-renderer-id="0" transform="translate(626, 339)"><g id="tx_beautifu_qwj1471raveo9-fill" stroke="none" fill="#A3A3A3"><g><text style="font: 20px Roboto, sans-serif; white-space: pre;"><tspan x="13.66" y="34" dominant-baseline="ideographic">BeautifulSoup</tspan></text></g></g></g><g id="g-root-tx_apigoogl_mgpizr1ravfgi-fill" data-item-order="0" data-item-id="tx_apigoogl_mgpizr1ravfgi" data-item-class="Label Stroke" data-item-index="none" data-renderer-id="0" transform="translate(98, 387)"><g id="tx_apigoogl_mgpizr1ravfgi-fill" stroke="none" fill="#A3A3A3"><g><text style="font: 20px Roboto, sans-serif; white-space: pre;"><tspan x="14.35" y="34" dominant-baseline="ideographic">API Google Vision</tspan></text></g></g></g><g id="g-root-cu_meu3qf1rawvez-fill" data-item-order="0" data-item-id="cu_meu3qf1rawvez" data-item-class="Curve Stroke ColorFillBlack ColorStrokeBlack" data-item-index="none" data-renderer-id="0" transform="translate(272, 375)"></g><g id="g-root-cu_hzn2p31rawt1i-fill" data-item-order="0" data-item-id="cu_hzn2p31rawt1i" data-item-class="Curve Stroke ColorFillBlack ColorStrokeBlack" data-item-index="none" data-renderer-id="0" transform="translate(272, 375)"></g><g id="g-root-tx_modleten_dl2iqv1ravg97-fill" data-item-order="0" data-item-id="tx_modleten_dl2iqv1ravg97" data-item-class="Label Stroke" data-item-index="none" data-renderer-id="0" transform="translate(86, 423)"><g id="tx_modleten_dl2iqv1ravg97-fill" stroke="none" fill="#A3A3A3"><g><text style="font: 20px Roboto, sans-serif; white-space: pre;"><tspan x="12.91" y="34" dominant-baseline="ideographic">Modèle TensorFlow</tspan></text></g></g></g><g id="g-root-tx_basededo_v5hbaf1rawtmv-fill" data-item-order="0" data-item-id="tx_basededo_v5hbaf1rawtmv" data-item-class="Label Stroke" data-item-index="none" data-renderer-id="0" transform="translate(110, 18)"><g id="tx_basededo_v5hbaf1rawtmv-fill" stroke="none" fill="#44E095"><g><text style="font: 20px Roboto, sans-serif; white-space: pre;"><tspan x="11.86" y="34" dominant-baseline="ideographic">Base de données</tspan></text></g></g></g><g id="g-root-tx_donnesde_147d2ef1ravg93-fill" data-item-order="0" data-item-id="tx_donnesde_147d2ef1ravg93" data-item-class="Label Stroke" data-item-index="none" data-renderer-id="0" transform="translate(74, 273)"><g id="tx_donnesde_147d2ef1ravg93-fill" stroke="none" fill="#A3A3A3"><g><text style="font: 20px Roboto, sans-serif; white-space: pre;"><tspan x="12.1" y="34" dominant-baseline="ideographic">Données de Scraping</tspan></text></g></g></g><g id="g-root-ro_hvw86f1rau1vr-stroke" data-item-order="-21168" data-item-id="ro_hvw86f1rau1vr" data-item-class="Shape Stroke Fill" data-item-index="none" data-renderer-id="0" transform="translate(362, 162)"><g id="ro_hvw86f1rau1vr-stroke" fill="none" stroke-linecap="round" stroke-linejoin="round" stroke-miterlimit="4" stroke="#A3A3A3" stroke-width="2"><g><path d="M 34 10L 154 10C 154 10 178 10 178 34L 178 112C 178 112 178 136 154 136L 34 136C 34 136 10 136 10 112L 10 34C 10 34 10 10 34 10"></path></g></g></g><g id="g-root-ro_1lwrnmv1rawt1r-stroke" data-item-order="-12960" data-item-id="ro_1lwrnmv1rawt1r" data-item-class="Shape Stroke Fill" data-item-index="none" data-renderer-id="0" transform="translate(74, 321)"><g id="ro_1lwrnmv1rawt1r-stroke" fill="none" stroke-linecap="round" stroke-linejoin="round" stroke-miterlimit="4" stroke="#CD6AFB" stroke-width="2"><g><path d="M 22 10L 238 10C 238 10 250 10 250 22L 250 52C 250 52 250 64 238 64L 22 64C 22 64 10 64 10 52L 10 22C 10 22 10 10 22 10"></path></g></g></g><g id="g-root-ro_hu0sx31rawv7t-stroke" data-item-order="-11664" data-item-id="ro_hu0sx31rawv7t" data-item-class="Shape Stroke Fill" data-item-index="none" data-renderer-id="0" transform="translate(98, 3)"><g id="ro_hu0sx31rawv7t-stroke" fill="none" stroke-linecap="round" stroke-linejoin="round" stroke-miterlimit="4" stroke="#44E095" stroke-width="2"><g><path d="M 22 10L 214 10C 214 10 226 10 226 22L 226 52C 226 52 226 64 214 64L 22 64C 22 64 10 64 10 52L 10 22C 10 22 10 10 22 10"></path></g></g></g><g id="g-root-ro_meu3qf1rau29x-stroke" data-item-order="-8424" data-item-id="ro_meu3qf1rau29x" data-item-class="Shape Stroke Fill" data-item-index="none" data-renderer-id="0" transform="translate(578, 87)"><g id="ro_meu3qf1rau29x-stroke" fill="none" stroke-linecap="round" stroke-linejoin="round" stroke-miterlimit="4" stroke="#4F92FF" stroke-width="2"><g><path d="M 22 10L 154 10C 154 10 166 10 166 22L 166 52C 166 52 166 64 154 64L 22 64C 22 64 10 64 10 52L 10 22C 10 22 10 10 22 10"></path></g></g></g><g id="g-root-ro_1ltna7b1ravegx-stroke" data-item-order="-7776" data-item-id="ro_1ltna7b1ravegx" data-item-class="Shape Stroke Fill" data-item-index="none" data-renderer-id="0" transform="translate(578, 237)"><g id="ro_1ltna7b1ravegx-stroke" fill="none" stroke-linecap="round" stroke-linejoin="round" stroke-miterlimit="4" stroke="#F99539" stroke-width="2"><g><path d="M 22 10L 142 10C 142 10 154 10 154 22L 154 52C 154 52 154 64 142 64L 22 64C 22 64 10 64 10 52L 10 22C 10 22 10 10 22 10"></path></g></g></g><g id="g-root-cu_14644871rawt1d-stroke" data-item-order="0" data-item-id="cu_14644871rawt1d" data-item-class="Curve Stroke ColorFillBlack ColorStrokeBlack" data-item-index="none" data-renderer-id="0" transform="translate(272, 57)"><g id="cu_14644871rawt1d-stroke" fill="none" stroke-linecap="round" stroke-linejoin="round" stroke-miterlimit="4" stroke="#666666" stroke-width="2" stroke-dasharray="5.0, 7.0"><g><path d="M 28 10L 28 22L 28 34L 19 34L 10 34"></path></g></g></g><g id="g-root-cu_14644871rawt1g-stroke" data-item-order="0" data-item-id="cu_14644871rawt1g" data-item-class="Curve Stroke ColorFillBlack ColorStrokeBlack" data-item-index="none" data-renderer-id="0" transform="translate(272, 57)"><g id="cu_14644871rawt1g-stroke" fill="none" stroke-linecap="round" stroke-linejoin="round" stroke-miterlimit="4" stroke="#666666" stroke-width="2" stroke-dasharray="5.0, 7.0"><g><path d="M 28 10L 28 40L 28 70L 19 70L 10 70"></path></g></g></g><g id="g-root-cu_vah3zb1rawtu6-stroke" data-item-order="0" data-item-id="cu_vah3zb1rawtu6" data-item-class="Curve Stroke ColorFillBlack ColorStrokeBlack" data-item-index="none" data-renderer-id="0" transform="translate(272, 57)"><g id="cu_vah3zb1rawtu6-stroke" fill="none" stroke-linecap="round" stroke-linejoin="round" stroke-miterlimit="4" stroke="#666666" stroke-width="2" stroke-dasharray="5.0, 7.0"><g><path d="M 28 10L 28 58L 28 106L 19 106L 10 106"></path></g></g></g><g id="g-root-cu_zqam3r1rawtts-stroke" data-item-order="0" data-item-id="cu_zqam3r1rawtts" data-item-class="Curve Stroke ColorFillBlack ColorStrokeBlack" data-item-index="none" data-renderer-id="0" transform="translate(272, 57)"><g id="cu_zqam3r1rawtts-stroke" fill="none" stroke-linecap="round" stroke-linejoin="round" stroke-miterlimit="4" stroke="#666666" stroke-width="2" stroke-dasharray="5.0, 7.0"><g><path d="M 28 10L 28 76L 28 142L 19 142L 10 142"></path></g></g></g><g id="g-root-cu_zqam3r1rawttu-stroke" data-item-order="0" data-item-id="cu_zqam3r1rawttu" data-item-class="Curve Stroke ColorFillBlack ColorStrokeBlack" data-item-index="none" data-renderer-id="0" transform="translate(272, 57)"><g id="cu_zqam3r1rawttu-stroke" fill="none" stroke-linecap="round" stroke-linejoin="round" stroke-miterlimit="4" stroke="#666666" stroke-width="2" stroke-dasharray="5.0, 7.0"><g><path d="M 28 10L 28 100L 28 190L 19 190L 10 190"></path></g></g></g><g id="g-root-cu_qunluv1rawumk-stroke" data-item-order="0" data-item-id="cu_qunluv1rawumk" data-item-class="Curve Stroke ColorFillBlack ColorStrokeBlack" data-item-index="none" data-renderer-id="0" transform="translate(272, 57)"><g id="cu_qunluv1rawumk-stroke" fill="none" stroke-linecap="round" stroke-linejoin="round" stroke-miterlimit="4" stroke="#666666" stroke-width="2" stroke-dasharray="5.0, 7.0"><g><path d="M 28 10L 28 38.5L 28 226C 28.000015 232.627432 22.627432 238.000015 16.000014 238.000016L 15.9 238L 10 238"></path></g></g></g><g id="g-root-tx_postgres_1utnm1z1ravg8y-stroke" data-item-order="0" data-item-id="tx_postgres_1utnm1z1ravg8y" data-item-class="Label Stroke" data-item-index="none" data-renderer-id="0" transform="translate(146, 69)"></g><g id="g-root-tx_schmaopt_1ly0lt31ravh1n-stroke" data-item-order="0" data-item-id="tx_schmaopt_1ly0lt31ravh1n" data-item-class="Label Stroke" data-item-index="none" data-renderer-id="0" transform="translate(98, 105)"></g><g id="g-root-1_zqam3r1rau0p0-stroke" data-item-order="0" data-item-id="1_zqam3r1rau0p0" data-item-class="Icon Stroke" data-item-index="none" data-renderer-id="0" transform="translate(590, 99)"><g id="1_zqam3r1rau0p0-stroke" fill="none" stroke-linecap="round" stroke-linejoin="round" stroke-miterlimit="4" stroke="#4F92FF" stroke-width="2"><g><path d="M 13.214286 12.142857L 36.785713 12.142857C 36.785713 12.142857 38.92857 12.142857 38.92857 14.285714L 38.92857 22.857143C 38.92857 22.857143 38.92857 25 36.785713 25L 13.214286 25C 13.214286 25 11.071428 25 11.071428 22.857143L 11.071428 14.285714C 11.071428 14.285714 11.071428 12.142857 13.214286 12.142857M 16.428572 18.571428C 16.428572 19.163162 16.908266 19.642857 17.5 19.642857C 18.091734 19.642857 18.571428 19.163162 18.571428 18.571428C 18.571428 17.979694 18.091734 17.5 17.5 17.5C 16.908266 17.5 16.428572 17.979694 16.428572 18.571428M 26.071428 18.571428L 33.571426 18.571428M 13.214286 25C 12.030818 25 11.071428 25.959389 11.071428 27.142857L 11.071428 35.714287C 11.071428 36.897755 12.030818 37.857143 13.214286 37.857143L 36.785713 37.857143C 37.969181 37.857143 38.92857 36.897755 38.92857 35.714287L 38.92857 27.142857C 38.92857 25.959389 37.969181 25 36.785713 25M 16.428572 31.42857C 16.428572 32.020306 16.908266 32.5 17.5 32.5C 18.091734 32.5 18.571428 32.020306 18.571428 31.42857C 18.571428 30.836838 18.091734 30.357141 17.5 30.357141C 16.908266 30.357141 16.428572 30.836838 16.428572 31.42857M 26.071428 31.42857L 33.571426 31.42857"></path></g></g></g><g id="g-root-cu_1qcl5rb1rawt1c-stroke" data-item-order="0" data-item-id="cu_1qcl5rb1rawt1c" data-item-class="Curve Stroke ColorFillBlack ColorStrokeBlack" data-item-index="none" data-renderer-id="0" transform="translate(530, 114)"><g id="cu_1qcl5rb1rawt1c-stroke" fill="none" stroke-linecap="round" stroke-linejoin="round" stroke-miterlimit="4" stroke="#666666" stroke-width="2" stroke-dasharray="5.0, 7.0"><g><path d="M 10 100L 13 100L 13.1 100C 24.642748 100.000004 33.999997 90.642755 33.999998 79.100003L 34 79L 34 30.9C 33.999999 19.357249 43.357248 10.000001 54.899999 10.000002L 55 10L 58 10"></path></g></g></g><g id="g-root-tx_backend_14644871ratzwr-stroke" data-item-order="0" data-item-id="tx_backend_14644871ratzwr" data-item-class="Label Stroke" data-item-index="none" data-renderer-id="0" transform="translate(626, 102)"></g><g id="g-root-tx_tablespo_1ly0lt31ravh1o-stroke" data-item-order="0" data-item-id="tx_tablespo_1ly0lt31ravh1o" data-item-class="Label Stroke" data-item-index="none" data-renderer-id="0" transform="translate(38, 141)"></g><g id="g-root-cu_1d14ndz1rawumk-stroke" data-item-order="0" data-item-id="cu_1d14ndz1rawumk" data-item-class="Curve Stroke ColorFillBlack ColorStrokeBlack" data-item-index="none" data-renderer-id="0" transform="translate(602, 141)"><g id="cu_1d14ndz1rawumk-stroke" fill="none" stroke-linecap="round" stroke-linejoin="round" stroke-miterlimit="4" stroke="#666666" stroke-width="2" stroke-dasharray="5.0, 7.0"><g><path d="M 10 10L 10 22L 10 34L 19 34L 28 34"></path></g></g></g><g id="g-root-cu_18lb59j1rawvev-stroke" data-item-order="0" data-item-id="cu_18lb59j1rawvev" data-item-class="Curve Stroke ColorFillBlack ColorStrokeBlack" data-item-index="none" data-renderer-id="0" transform="translate(602, 141)"><g id="cu_18lb59j1rawvev-stroke" fill="none" stroke-linecap="round" stroke-linejoin="round" stroke-miterlimit="4" stroke="#666666" stroke-width="2" stroke-dasharray="5.0, 7.0"><g><path d="M 10 10L 10 17.5L 10 58C 10.000002 64.627417 15.372585 70 22.000002 69.999999L 22.1 70L 28 70"></path></g></g></g><g id="g-root-tx_symfony_9402g71ravev4-stroke" data-item-order="0" data-item-id="tx_symfony_9402g71ravev4" data-item-class="Label Stroke" data-item-index="none" data-renderer-id="0" transform="translate(626, 153)"></g><g id="g-root-tx_tablespo_1hitkrr1raveo5-stroke" data-item-order="0" data-item-id="tx_tablespo_1hitkrr1raveo5" data-item-class="Label Stroke" data-item-index="none" data-renderer-id="0" transform="translate(38, 177)"></g><g id="g-root-vr_v7cqjr1rau0au-stroke" data-item-order="0" data-item-id="vr_v7cqjr1rau0au" data-item-class="Icon Stroke" data-item-index="none" data-renderer-id="0" transform="translate(422, 186)"><g id="vr_v7cqjr1rau0au-stroke" fill="none" stroke-linecap="round" stroke-linejoin="round" stroke-miterlimit="4" stroke="#A3A3A3" stroke-width="2"><g><path d="M 13.226 41.422001C 11.996614 41.422001 11 42.418617 11 43.648003L 11 54.773998C 11 56.003387 11.996614 57.000004 13.226 57.000004L 20.226 57C 21.212963 56.998814 22.081081 56.347317 22.358 55.399998C 23.062376 53.042751 25.230766 51.42757 27.691 51.42757C 30.151234 51.42757 32.319622 53.042751 33.023998 55.399998C 33.301491 56.346924 34.169258 56.998154 35.156002 57.000004L 42.155998 57C 43.385387 57.000004 44.382 56.003387 44.382 54.774002L 44.382 43.647999C 44.382 42.418617 43.385387 41.422001 42.156002 41.422001ZM 40.458 36.422001C 40.834175 35.154991 41.031418 33.841618 41.043999 32.52C 40.954529 25.209076 35.002472 19.329416 27.691 19.329416C 20.379528 19.329416 14.427472 25.209076 14.337999 32.52C 14.350266 33.847034 14.548185 35.165825 14.926 36.437996M 31.948 36.419998C 32.063999 35.18 32.148003 33.877998 32.148003 32.52C 32.148003 25.146 30.148001 19.167999 27.695999 19.167999C 25.243999 19.167999 23.24 25.146 23.24 32.52C 23.24 33.877998 23.316 35.18 23.439999 36.419998M 15.1 28.07L 40.281998 28.07M 45.400002 25.571999C 45.354992 23.955143 44.054859 22.655012 42.438 22.610001M 51.200001 25.686001C 51.064968 20.838743 47.167255 16.941029 42.32 16.806M 51.200001 25.686001C 51.064968 20.838743 47.167255 16.941029 42.32 16.806M 57 25.799999C 56.772968 17.722094 50.277905 11.227032 42.200001 11M 57 25.799999C 56.772968 17.722094 50.277905 11.227032 42.200001 11"></path></g></g></g><g id="g-root-tx_doctrine_8d27b1ravfnt-stroke" data-item-order="0" data-item-id="tx_doctrine_8d27b1ravfnt" data-item-class="Label Stroke" data-item-index="none" data-renderer-id="0" transform="translate(626, 189)"></g><g id="g-root-tx_tablespo_18n6kiv1ravfgu-stroke" data-item-order="0" data-item-id="tx_tablespo_18n6kiv1ravfgu" data-item-class="Label Stroke" data-item-index="none" data-renderer-id="0" transform="translate(2, 213)"></g><g id="g-root-cu_1d14ndz1rawumh-stroke" data-item-order="0" data-item-id="cu_1d14ndz1rawumh" data-item-class="Curve Stroke ColorFillBlack ColorStrokeBlack" data-item-index="none" data-renderer-id="0" transform="translate(314, 246)"><g id="cu_1d14ndz1rawumh-stroke" fill="none" stroke-linecap="round" stroke-linejoin="round" stroke-miterlimit="4" stroke="#666666" stroke-width="2" stroke-dasharray="5.0, 7.0"><g><path d="M 58 10L 55 10L 54.9 10C 43.357248 10.000001 33.999999 19.357249 33.999999 30.9L 34 31L 34 91.1C 33.999998 102.642755 24.642749 112.000004 13.099997 112.000003L 13 112L 10 112"></path></g></g></g><g id="g-root-tx_technolo_zmjrl31rau2od-stroke" data-item-order="0" data-item-id="tx_technolo_zmjrl31rau2od" data-item-class="Label Stroke" data-item-index="none" data-renderer-id="0" transform="translate(386, 240)"></g><g id="g-root-cu_1hgy5if1rawtu6-stroke" data-item-order="0" data-item-id="cu_1hgy5if1rawtu6" data-item-class="Curve Stroke ColorFillBlack ColorStrokeBlack" data-item-index="none" data-renderer-id="0" transform="translate(530, 246)"><g id="cu_1hgy5if1rawtu6-stroke" fill="none" stroke-linecap="round" stroke-linejoin="round" stroke-miterlimit="4" stroke="#666666" stroke-width="2" stroke-dasharray="5.0, 7.0"><g><path d="M 10 10L 13 10L 13.1 10C 16.63228 9.979927 20.514747 10.763232 24.5 12.300001C 26.884298 13.264007 30.256797 15.642506 34.000001 19.000001C 37.743204 22.357495 41.115704 24.735995 43.500001 25.700001C 47.485253 27.236771 51.36772 28.020075 54.9 28.000003L 55 28L 58 28"></path></g></g></g><g id="g-root-cu_1hgy5if1rawtu3-stroke" data-item-order="0" data-item-id="cu_1hgy5if1rawtu3" data-item-class="Curve Stroke ColorFillBlack ColorStrokeBlack" data-item-index="none" data-renderer-id="0" transform="translate(314, 30)"><g id="cu_1hgy5if1rawtu3-stroke" fill="none" stroke-linecap="round" stroke-linejoin="round" stroke-miterlimit="4" stroke="#666666" stroke-width="2" stroke-dasharray="5.0, 7.0"><g><path d="M 58 184L 55 184L 54.9 184C 43.35725 184.000002 34.000001 174.642753 34.000001 163.100001L 34 163L 34 30.9C 33.999998 19.357248 24.64275 10 13.1 10L 13 10L 10 10"></path></g></g></g><g id="g-root-saw_1q8ub8n1ravgug-stroke" data-item-order="0" data-item-id="saw_1q8ub8n1ravgug" data-item-class="Icon Stroke" data-item-index="none" data-renderer-id="0" transform="translate(590, 249)"><g id="saw_1q8ub8n1ravgug-stroke" fill="none" stroke-linecap="round" stroke-linejoin="round" stroke-miterlimit="4" stroke="#F99539" stroke-width="2"><g><path d="M 36.471249 10.72375C 36.234692 10.576561 35.930706 10.596157 35.715 10.7725L 15.4125 27.467501L 22.30125 34.355L 22.786251 28.98L 27.981251 28.98C 28.339746 28.98 28.63056 28.689745 28.631248 28.331249L 28.63125 23.7925L 33.17625 23.7925C 33.348526 23.792831 33.513859 23.724628 33.635792 23.602928C 33.757729 23.481228 33.826248 23.316025 33.826248 23.143749L 33.826252 18.594999L 38.375 18.594999C 38.733498 18.594999 39.024307 18.304747 39.024998 17.946249L 39.024998 12.67375C 39.024902 12.449791 38.909081 12.241783 38.71875 12.12375ZM 22.30125 34.355L 19.491249 38.287498C 19.047335 38.908592 18.352671 39.302952 17.591839 39.365791C 16.831007 39.428631 16.081053 39.153591 15.54125 38.61375L 11.74 34.813751C 10.72525 33.798897 10.72525 32.153603 11.74 31.138748L 15.4125 27.467501L 22.30125 34.355M 17.710001 35.272499L 14.49375 32.057499"></path></g></g></g><g id="g-root-tx_scraping_1uontd31ravg27-stroke" data-item-order="0" data-item-id="tx_scraping_1uontd31ravg27" data-item-class="Label Stroke" data-item-index="none" data-renderer-id="0" transform="translate(626, 252)"></g><g id="g-root-cu_qunluv1rawumm-stroke" data-item-order="0" data-item-id="cu_qunluv1rawumm" data-item-class="Curve Stroke ColorFillBlack ColorStrokeBlack" data-item-index="none" data-renderer-id="0" transform="translate(602, 291)"><g id="cu_qunluv1rawumm-stroke" fill="none" stroke-linecap="round" stroke-linejoin="round" stroke-miterlimit="4" stroke="#666666" stroke-width="2" stroke-dasharray="5.0, 7.0"><g><path d="M 10 10L 10 22L 10 34L 19 34L 28 34"></path></g></g></g><g id="g-root-cu_meu3qf1rawvex-stroke" data-item-order="0" data-item-id="cu_meu3qf1rawvex" data-item-class="Curve Stroke ColorFillBlack ColorStrokeBlack" data-item-index="none" data-renderer-id="0" transform="translate(602, 291)"><g id="cu_meu3qf1rawvex-stroke" fill="none" stroke-linecap="round" stroke-linejoin="round" stroke-miterlimit="4" stroke="#666666" stroke-width="2" stroke-dasharray="5.0, 7.0"><g><path d="M 10 10L 10 17.5L 10 58C 10.000002 64.627417 15.372585 70 22.000002 69.999999L 22.1 70L 28 70"></path></g></g></g><g id="g-root-tx_scrapy_zrjk9z1ravh1c-stroke" data-item-order="0" data-item-id="tx_scrapy_zrjk9z1ravh1c" data-item-class="Label Stroke" data-item-index="none" data-renderer-id="0" transform="translate(626, 303)"></g><g id="g-root-data_qpnt5z1rawuf4-stroke" data-item-order="0" data-item-id="data_qpnt5z1rawuf4" data-item-class="Icon Stroke" data-item-index="none" data-renderer-id="0" transform="translate(272, 15)"><g id="data_qpnt5z1rawuf4-stroke" fill="none" stroke-linecap="round" stroke-linejoin="round" stroke-miterlimit="4" stroke="#44E095" stroke-width="2"><g><path d="M 11.071428 16.428572C 11.071429 19.387239 17.307463 21.785713 25 21.785713C 32.692539 21.785713 38.92857 19.387239 38.92857 16.428572C 38.92857 13.469903 32.692539 11.071428 25 11.071428C 17.307463 11.071428 11.071429 13.469903 11.071429 16.428572M 11.071428 16.428572L 11.071428 33.571426C 11.071428 36.528572 17.307142 38.92857 25 38.92857C 32.692856 38.92857 38.92857 36.528572 38.92857 33.571426L 38.92857 16.428572M 38.92857 25C 38.92857 27.957142 32.692856 30.357141 25 30.357141C 17.307142 30.357141 11.071428 27.957142 11.071428 25"></path></g></g></g><g id="g-root-tx_recherch_6hmxz1rawutp-stroke" data-item-order="0" data-item-id="tx_recherch_6hmxz1rawutp" data-item-class="Label Stroke" data-item-index="none" data-renderer-id="0" transform="translate(86, 336)"></g><g id="g-root-eyee_1urs6sn1rawveu-stroke" data-item-order="0" data-item-id="eyee_1urs6sn1rawveu" data-item-class="Icon Stroke" data-item-index="none" data-renderer-id="0" transform="translate(272, 333)"><g id="eyee_1urs6sn1rawveu-stroke" fill="none" stroke-linecap="round" stroke-linejoin="round" stroke-miterlimit="4" stroke="#CD6AFB" stroke-width="2"><g><path d="M 10.625 10.625L 39.375 10.625L 39.375 39.375L 10.625 39.375ZM 29.375 18.125L 20.625 18.125L 20.625 31.875L 29.375 31.875M 20.625 25L 29.375 25"></path></g></g></g><g id="g-root-tx_beautifu_qwj1471raveo9-stroke" data-item-order="0" data-item-id="tx_beautifu_qwj1471raveo9" data-item-class="Label Stroke" data-item-index="none" data-renderer-id="0" transform="translate(626, 339)"></g><g id="g-root-tx_apigoogl_mgpizr1ravfgi-stroke" data-item-order="0" data-item-id="tx_apigoogl_mgpizr1ravfgi" data-item-class="Label Stroke" data-item-index="none" data-renderer-id="0" transform="translate(98, 387)"></g><g id="g-root-cu_meu3qf1rawvez-stroke" data-item-order="0" data-item-id="cu_meu3qf1rawvez" data-item-class="Curve Stroke ColorFillBlack ColorStrokeBlack" data-item-index="none" data-renderer-id="0" transform="translate(272, 375)"><g id="cu_meu3qf1rawvez-stroke" fill="none" stroke-linecap="round" stroke-linejoin="round" stroke-miterlimit="4" stroke="#666666" stroke-width="2" stroke-dasharray="5.0, 7.0"><g><path d="M 28 10L 28 22L 28 34L 19 34L 10 34"></path></g></g></g><g id="g-root-cu_hzn2p31rawt1i-stroke" data-item-order="0" data-item-id="cu_hzn2p31rawt1i" data-item-class="Curve Stroke ColorFillBlack ColorStrokeBlack" data-item-index="none" data-renderer-id="0" transform="translate(272, 375)"><g id="cu_hzn2p31rawt1i-stroke" fill="none" stroke-linecap="round" stroke-linejoin="round" stroke-miterlimit="4" stroke="#666666" stroke-width="2" stroke-dasharray="5.0, 7.0"><g><path d="M 28 10L 28 17.5L 28 58C 27.999999 64.627415 22.627416 69.999998 16 69.999998L 15.9 70L 10 70"></path></g></g></g><g id="g-root-tx_modleten_dl2iqv1ravg97-stroke" data-item-order="0" data-item-id="tx_modleten_dl2iqv1ravg97" data-item-class="Label Stroke" data-item-index="none" data-renderer-id="0" transform="translate(86, 423)"></g><g id="g-root-tx_basededo_v5hbaf1rawtmv-stroke" data-item-order="0" data-item-id="tx_basededo_v5hbaf1rawtmv" data-item-class="Label Stroke" data-item-index="none" data-renderer-id="0" transform="translate(110, 18)"></g><g id="g-root-tx_donnesde_147d2ef1ravg93-stroke" data-item-order="0" data-item-id="tx_donnesde_147d2ef1ravg93" data-item-class="Label Stroke" data-item-index="none" data-renderer-id="0" transform="translate(74, 273)"></g></g></g></svg>