<?xml version="1.0" encoding="utf-8" standalone="yes"?>
<!DOCTYPE svg PUBLIC "-//W3C//DTD SVG 1.1//EN" "http://www.w3.org/Graphics/SVG/1.1/DTD/svg11.dtd">
<svg width="746" height="444" viewBox="0 0 746 444" style="fill:none;stroke:none;fill-rule:evenodd;clip-rule:evenodd;stroke-linecap:round;stroke-linejoin:round;stroke-miterlimit:1.5;" version="1.1" xmlns="http://www.w3.org/2000/svg" xmlns:xlink="http://www.w3.org/1999/xlink"><style id="fontImports">@import url("https://fonts.googleapis.com/css2?family=Shantell+Sans:wght@300..800&amp;display=block");</style><rect id="" x="0" y="0" width="746" height="444" style="fill: #2c2c2c;"></rect><g id="items" style="isolation: isolate"><g id="blend" style="mix-blend-mode:screen"><g id="g-root--1.line_sy_hssahl1tsm6tq-fill" data-item-order="-4315" data-item-id="-1.line_sy_hssahl1tsm6tq" data-item-class="Part Stroke ColorStrokeGray" data-item-index="-1" data-renderer-id="0" transform="translate(655, 277.99609375)"></g><g id="g-root--1.vector_sy_hssahl1tsm6tr-fill" data-item-order="-4313" data-item-id="-1.vector_sy_hssahl1tsm6tr" data-item-class="Part Stroke ColorStrokeGray" data-item-index="-1" data-renderer-id="0" transform="translate(4, 277.99609375)"></g><g id="g-root-7.cu-smallCircle_sy_24r2x1tsm61a-fill" data-item-order="-4311" data-item-id="7.cu-smallCircle_sy_24r2x1tsm61a" data-item-class="Part Indexed Stroke ColorStrokeGray" data-item-index="7" data-renderer-id="0" transform="translate(649, 275)"></g><g id="g-root-6.cu-smallCircle_sy_24r2x1tsm619-fill" data-item-order="-4309" data-item-id="6.cu-smallCircle_sy_24r2x1tsm619" data-item-class="Part Indexed Stroke ColorStrokeGray" data-item-index="6" data-renderer-id="0" transform="translate(553, 275)"></g><g id="g-root-5.cu-smallCircle_sy_8xrrbt1tsm58k-fill" data-item-order="-4307" data-item-id="5.cu-smallCircle_sy_8xrrbt1tsm58k" data-item-class="Part Indexed Stroke ColorStrokeGray" data-item-index="5" data-renderer-id="0" transform="translate(457, 275)"></g><g id="g-root-4.cu-smallCircle_sy_8xrrbt1tsm58j-fill" data-item-order="-4305" data-item-id="4.cu-smallCircle_sy_8xrrbt1tsm58j" data-item-class="Part Indexed Stroke ColorStrokeGray" data-item-index="4" data-renderer-id="0" transform="translate(361, 275)"></g><g id="g-root-3.cu-smallCircle_sy_8xrrbt1tsm58i-fill" data-item-order="-4303" data-item-id="3.cu-smallCircle_sy_8xrrbt1tsm58i" data-item-class="Part Indexed Stroke ColorStrokeGray" data-item-index="3" data-renderer-id="0" transform="translate(265, 275)"></g><g id="g-root-2.cu-smallCircle_sy_ddl9g91tsm4g9-fill" data-item-order="-4301" data-item-id="2.cu-smallCircle_sy_ddl9g91tsm4g9" data-item-class="Part Indexed Stroke ColorStrokeGray" data-item-index="2" data-renderer-id="0" transform="translate(169, 275)"></g><g id="g-root-1.cu-smallCircle_sy_ddl9g91tsm4g8-fill" data-item-order="-4299" data-item-id="1.cu-smallCircle_sy_ddl9g91tsm4g8" data-item-class="Part Indexed Indexed_1 Stroke ColorStrokeGray" data-item-index="1" data-renderer-id="0" transform="translate(73, 275)"></g><g id="g-root-1_4jtogp1tsnj7r-fill" data-item-order="0" data-item-id="1_4jtogp1tsnj7r" data-item-class="Icon Stroke Indexed ColorStrokeGray" data-item-index="7" data-renderer-id="0" transform="translate(628, 218)"></g><g id="g-root-shie_zn6oex1tsnkll-fill" data-item-order="0" data-item-id="shie_zn6oex1tsnkll" data-item-class="Icon Stroke Indexed ColorStrokeGray" data-item-index="5" data-renderer-id="0" transform="translate(436, 218)"></g><g id="g-root-chec_4l2mmx1tsnldv-fill" data-item-order="0" data-item-id="chec_4l2mmx1tsnldv" data-item-class="Icon Stroke Indexed ColorStrokeGray" data-item-index="3" data-renderer-id="0" transform="translate(244, 218)"></g><g id="g-root-tx_afficher_1q7lst51tsm7eo-fill" data-item-order="0" data-item-id="tx_afficher_1q7lst51tsm7eo" data-item-class="Label Stroke Indexed ColorStrokeGray" data-item-index="6" data-renderer-id="0" transform="translate(490, 350)"><g id="tx_afficher_1q7lst51tsm7eo-fill" stroke="none" fill="#A3A3A3"><g><text style="font: 20px &quot;Shantell Sans&quot;, cursive; white-space: pre;"><tspan x="17.05" y="34.45" dominant-baseline="ideographic">Afficher les </tspan><tspan x="36.06" y="58.44" dominant-baseline="ideographic">Listings</tspan></text></g></g></g><g id="g-root-tx_redirige_24r2x1tsm61b-fill" data-item-order="0" data-item-id="tx_redirige_24r2x1tsm61b" data-item-class="Label Stroke Indexed ColorStrokeGray" data-item-index="7" data-renderer-id="0" transform="translate(580, 158)"><g id="tx_redirige_24r2x1tsm61b-fill" stroke="none" fill="#A3A3A3"><g><text style="font: 20px &quot;Shantell Sans&quot;, cursive; white-space: pre;"><tspan x="12.3" y="34.45" dominant-baseline="ideographic">Rediriger vers </tspan><tspan x="47.26" y="58.44" dominant-baseline="ideographic">l'Achat</tspan></text></g></g></g><g id="g-root-tx_assurerl_1hcl9nd1tsm51l-fill" data-item-order="0" data-item-id="tx_assurerl_1hcl9nd1tsm51l" data-item-class="Label Stroke Indexed ColorStrokeGray" data-item-index="5" data-renderer-id="0" transform="translate(400, 158)"><g id="tx_assurerl_1hcl9nd1tsm51l-fill" stroke="none" fill="#A3A3A3"><g><text style="font: 20px &quot;Shantell Sans&quot;, cursive; white-space: pre;"><tspan x="18.93" y="34.45" dominant-baseline="ideographic">Assurer la </tspan><tspan x="15.56" y="58.44" dominant-baseline="ideographic">Conformité</tspan></text></g></g></g><g id="g-root-tx_stockerl_zlb95l1tsm7er-fill" data-item-order="0" data-item-id="tx_stockerl_zlb95l1tsm7er" data-item-class="Label Stroke Indexed ColorStrokeGray" data-item-index="3" data-renderer-id="0" transform="translate(208, 158)"><g id="tx_stockerl_zlb95l1tsm7er-fill" stroke="none" fill="#A3A3A3"><g><text style="font: 20px &quot;Shantell Sans&quot;, cursive; white-space: pre;"><tspan x="13.77" y="34.45" dominant-baseline="ideographic">Stocker les </tspan><tspan x="25.8" y="58.44" dominant-baseline="ideographic">Données</tspan></text></g></g></g><g id="g-root-data_1uqjod51tsnlzg-fill" data-item-order="0" data-item-id="data_1uqjod51tsnlzg" data-item-class="Icon Stroke Indexed ColorStrokeGray" data-item-index="2" data-renderer-id="0" transform="translate(148, 290)"></g><g id="g-root-cloc_hwj5091tsnjsy-fill" data-item-order="0" data-item-id="cloc_hwj5091tsnjsy" data-item-class="Icon Stroke Indexed ColorStrokeGray" data-item-index="4" data-renderer-id="0" transform="translate(340, 290)"></g><g id="g-root-sett_1cyn6s91tsnj0o-fill" data-item-order="0" data-item-id="sett_1cyn6s91tsnj0o" data-item-class="Icon Stroke Indexed ColorStrokeGray" data-item-index="6" data-renderer-id="0" transform="translate(532, 290)"></g><g id="g-root-tx_initierl_mah7vd1tsm5tx-fill" data-item-order="0" data-item-id="tx_initierl_mah7vd1tsm5tx" data-item-class="Label Stroke Indexed Indexed_1 ColorStrokeGray" data-item-index="1" data-renderer-id="0" transform="translate(22, 134)"><g id="tx_initierl_mah7vd1tsm5tx-fill" stroke="none" fill="#A3A3A3"><g><text style="font: 20px &quot;Shantell Sans&quot;, cursive; white-space: pre;"><tspan x="17.57" y="34.45" dominant-baseline="ideographic">Initier le </tspan><tspan x="17.9" y="58.44" dominant-baseline="ideographic">Script de </tspan><tspan x="19.7" y="82.44" dominant-baseline="ideographic">Scraping</tspan></text></g></g></g><g id="g-root-tx_extraire_qqapzt1tsm51o-fill" data-item-order="0" data-item-id="tx_extraire_qqapzt1tsm51o" data-item-class="Label Stroke Indexed ColorStrokeGray" data-item-index="2" data-renderer-id="0" transform="translate(106, 350)"><g id="tx_extraire_qqapzt1tsm51o-fill" stroke="none" fill="#A3A3A3"><g><text style="font: 20px &quot;Shantell Sans&quot;, cursive; white-space: pre;"><tspan x="17.38" y="34.45" dominant-baseline="ideographic">Extraire les </tspan><tspan x="31.79" y="58.44" dominant-baseline="ideographic">Données</tspan></text></g></g></g><g id="g-root-tx_planifie_1cwrrix1tsm5tu-fill" data-item-order="0" data-item-id="tx_planifie_1cwrrix1tsm5tu" data-item-class="Label Stroke Indexed ColorStrokeGray" data-item-index="4" data-renderer-id="0" transform="translate(298, 350)"><g id="tx_planifie_1cwrrix1tsm5tu-fill" stroke="none" fill="#A3A3A3"><g><text style="font: 20px &quot;Shantell Sans&quot;, cursive; white-space: pre;"><tspan x="11.97" y="34.45" dominant-baseline="ideographic">Planifier des </tspan><tspan x="49.94" y="58.44" dominant-baseline="ideographic">Jobs </tspan><tspan x="28.15" y="82.44" dominant-baseline="ideographic">Réguliers</tspan></text></g></g></g><g id="g-root-tx_scraping_deu7mh1tsm6mm-fill" data-item-order="0" data-item-id="tx_scraping_deu7mh1tsm6mm" data-item-class="Label Stroke Title ColorStrokeGray" data-item-index="none" data-renderer-id="0" transform="translate(94, 2)"><g id="tx_scraping_deu7mh1tsm6mm-fill" stroke="none" fill="#A3A3A3"><g><text style="font: bold 25px &quot;Shantell Sans&quot;, cursive; white-space: pre;"><tspan x="14.25" y="41.11" dominant-baseline="ideographic">Scraping et Intégration des Données de </tspan><tspan x="151.01" y="71.11" dominant-baseline="ideographic">Vestiaire Collective</tspan></text></g></g></g><g id="g-root-2_1hfpn2x1tsnkel-fill" data-item-order="0" data-item-id="2_1hfpn2x1tsnkel" data-item-class="Icon Stroke Indexed Indexed_1 ColorStrokeGray" data-item-index="1" data-renderer-id="0" transform="translate(52, 218)"></g><g id="g-root--1.line_sy_hssahl1tsm6tq-stroke" data-item-order="-4315" data-item-id="-1.line_sy_hssahl1tsm6tq" data-item-class="Part Stroke ColorStrokeGray" data-item-index="-1" data-renderer-id="0" transform="translate(655, 277.99609375)"><g id="-1.line_sy_hssahl1tsm6tq-stroke" fill="none" stroke-linecap="round" stroke-linejoin="round" stroke-miterlimit="4" stroke="#A3A3A3" stroke-width="2"><g><path d="M 77 10.003906C 54.7 8.303906 32.3 11.203906 10 10.003906"></path><path d="M 77 10.003906L 10 10.003906"></path><path d="M 71 16.503906C 73.8 15.303906 74.8 11.403906 77.5 10.003906C 75.8 7.503906 73.8 4.703906 71 3.503906" stroke-dasharray="none"></path><path d="M 71 16.503906L 77.5 10.003906L 71 3.503906" stroke-dasharray="none"></path></g></g></g><g id="g-root--1.vector_sy_hssahl1tsm6tr-stroke" data-item-order="-4313" data-item-id="-1.vector_sy_hssahl1tsm6tr" data-item-class="Part Stroke ColorStrokeGray" data-item-index="-1" data-renderer-id="0" transform="translate(4, 277.99609375)"><g id="-1.vector_sy_hssahl1tsm6tr-stroke" fill="none" stroke-linecap="round" stroke-linejoin="round" stroke-miterlimit="4" stroke="#A3A3A3" stroke-width="4"><g><path d="M 655 10C 640.4 8.6 625.7 9.5 611 10C 595.7 10.5 580.3 8.8 565 10M 559 10C 543 9.3 526.9 9.5 510.9 10C 496.9 10.4 483 10.2 469 10M 463 10C 448.9 8.9 434.8 9.6 420.7 10C 404.8 10.5 388.8 11.9 373 10M 367 10C 337 10.3 307 8.8 277 10M 271 10C 255.2 11.8 239.2 8.8 223.4 10C 209.3 11.1 195.1 10.3 181 10M 175 10C 145 11.6 115 8.7 85 10M 79 10C 56 9.8 33 9.6 10 10"></path><path d="M 655 10L 565 10M 559 10L 469 10M 463 10L 373 10M 367 10L 277 10M 271 10L 181 10M 174.9976 10L 84.9976 10M 78.9976 10L 10 10"></path></g></g></g><g id="g-root-7.cu-smallCircle_sy_24r2x1tsm61a-stroke" data-item-order="-4311" data-item-id="7.cu-smallCircle_sy_24r2x1tsm61a" data-item-class="Part Indexed Stroke ColorStrokeGray" data-item-index="7" data-renderer-id="0" transform="translate(649, 275)"><g id="7.cu-smallCircle_sy_24r2x1tsm61a-stroke" fill="none" stroke-linecap="round" stroke-linejoin="round" stroke-miterlimit="4" stroke="#A3A3A3" stroke-width="4"><g><path d="M 16 13C 15.7 14.6 14.7 16.1 13 16C 11.3 15.9 10.2 14.6 10 13C 9.8 11.4 11.3 10.1 13 10C 14.7 10 16.3 11.4 16 13"></path><path d="M 16 13C 16 14.6569 14.6569 16 13 16C 11.3431 16 10 14.6569 10 13C 10 11.3431 11.3431 10 13 10C 14.6569 10 16 11.3431 16 13Z"></path></g></g></g><g id="g-root-6.cu-smallCircle_sy_24r2x1tsm619-stroke" data-item-order="-4309" data-item-id="6.cu-smallCircle_sy_24r2x1tsm619" data-item-class="Part Indexed Stroke ColorStrokeGray" data-item-index="6" data-renderer-id="0" transform="translate(553, 275)"><g id="6.cu-smallCircle_sy_24r2x1tsm619-stroke" fill="none" stroke-linecap="round" stroke-linejoin="round" stroke-miterlimit="4" stroke="#A3A3A3" stroke-width="4"><g><path d="M 16 13C 16 14.7 14.6 16.4 13 16C 11.4 15.6 9.8 14.6 10 13C 10.2 11.4 11.4 9.7 13 10C 14.6 10.3 16.1 11.4 16 13"></path><path d="M 16 13C 16 14.6569 14.6569 16 13 16C 11.3431 16 10 14.6569 10 13C 10 11.3431 11.3431 10 13 10C 14.6569 10 16 11.3431 16 13Z"></path></g></g></g><g id="g-root-5.cu-smallCircle_sy_8xrrbt1tsm58k-stroke" data-item-order="-4307" data-item-id="5.cu-smallCircle_sy_8xrrbt1tsm58k" data-item-class="Part Indexed Stroke ColorStrokeGray" data-item-index="5" data-renderer-id="0" transform="translate(457, 275)"><g id="5.cu-smallCircle_sy_8xrrbt1tsm58k-stroke" fill="none" stroke-linecap="round" stroke-linejoin="round" stroke-miterlimit="4" stroke="#A3A3A3" stroke-width="4"><g><path d="M 16 13C 16.1 14.6 14.6 15.9 13 16C 11.3 16.1 9.8 14.6 10 13C 10.2 11.4 11.4 10.2 13 10C 14.6 9.8 15.5 11.4 16 13"></path><path d="M 16 13C 16 14.6569 14.6569 16 13 16C 11.3431 16 10 14.6569 10 13C 10 11.3431 11.3431 10 13 10C 14.6569 10 16 11.3431 16 13Z"></path></g></g></g><g id="g-root-4.cu-smallCircle_sy_8xrrbt1tsm58j-stroke" data-item-order="-4305" data-item-id="4.cu-smallCircle_sy_8xrrbt1tsm58j" data-item-class="Part Indexed Stroke ColorStrokeGray" data-item-index="4" data-renderer-id="0" transform="translate(361, 275)"><g id="4.cu-smallCircle_sy_8xrrbt1tsm58j-stroke" fill="none" stroke-linecap="round" stroke-linejoin="round" stroke-miterlimit="4" stroke="#A3A3A3" stroke-width="4"><g><path d="M 16 13C 15.8 14.6 14.6 16.2 13 16C 11.4 15.8 9.8 14.6 10 13C 10.2 11.4 11.4 10.4 13 10C 14.6 9.6 15.8 11.4 16 13"></path><path d="M 16 13C 16 14.6569 14.6569 16 13 16C 11.3431 16 10 14.6569 10 13C 10 11.3431 11.3431 10 13 10C 14.6569 10 16 11.3431 16 13Z"></path></g></g></g><g id="g-root-3.cu-smallCircle_sy_8xrrbt1tsm58i-stroke" data-item-order="-4303" data-item-id="3.cu-smallCircle_sy_8xrrbt1tsm58i" data-item-class="Part Indexed Stroke ColorStrokeGray" data-item-index="3" data-renderer-id="0" transform="translate(265, 275)"><g id="3.cu-smallCircle_sy_8xrrbt1tsm58i-stroke" fill="none" stroke-linecap="round" stroke-linejoin="round" stroke-miterlimit="4" stroke="#A3A3A3" stroke-width="4"><g><path d="M 16 13C 16.2 14.6 14.7 16 13 16C 11.3 16 10 14.7 10 13C 10 11.3 11.5 10.6 13 10C 14.5 9.4 16.5 11.4 16 13"></path><path d="M 16 13C 16 14.6569 14.6569 16 13 16C 11.3431 16 10 14.6569 10 13C 10 11.3431 11.3431 10 13 10C 14.6569 10 16 11.3431 16 13Z"></path></g></g></g><g id="g-root-2.cu-smallCircle_sy_ddl9g91tsm4g9-stroke" data-item-order="-4301" data-item-id="2.cu-smallCircle_sy_ddl9g91tsm4g9" data-item-class="Part Indexed Stroke ColorStrokeGray" data-item-index="2" data-renderer-id="0" transform="translate(169, 275)"><g id="2.cu-smallCircle_sy_ddl9g91tsm4g9-stroke" fill="none" stroke-linecap="round" stroke-linejoin="round" stroke-miterlimit="4" stroke="#A3A3A3" stroke-width="4"><g><path d="M 16 13C 15.9 14.7 14.6 15.9 13 16C 11.3 16.1 9.6 14.6 10 13C 10.4 11.4 11.4 9.5 13 10C 14.6 10.5 16 11.3 16 13"></path><path d="M 16 13C 16 14.6569 14.6569 16 13 16C 11.3431 16 10 14.6569 10 13C 10 11.3431 11.3431 10 13 10C 14.6569 10 16 11.3431 16 13Z"></path></g></g></g><g id="g-root-1.cu-smallCircle_sy_ddl9g91tsm4g8-stroke" data-item-order="-4299" data-item-id="1.cu-smallCircle_sy_ddl9g91tsm4g8" data-item-class="Part Indexed Indexed_1 Stroke ColorStrokeGray" data-item-index="1" data-renderer-id="0" transform="translate(73, 275)"><g id="1.cu-smallCircle_sy_ddl9g91tsm4g8-stroke" fill="none" stroke-linecap="round" stroke-linejoin="round" stroke-miterlimit="4" stroke="#A3A3A3" stroke-width="4"><g><path d="M 16 13C 16.1 14.7 14.7 15.9 13 16C 11.3 16.1 9.8 14.6 10 13C 10.2 11.4 11.4 9.7 13 10C 14.6 10.3 16.5 11.4 16 13"></path><path d="M 16 13C 16 14.6569 14.6569 16 13 16C 11.3431 16 10 14.6569 10 13C 10 11.3431 11.3431 10 13 10C 14.6569 10 16 11.3431 16 13Z"></path></g></g></g><g id="g-root-1_4jtogp1tsnj7r-stroke" data-item-order="0" data-item-id="1_4jtogp1tsnj7r" data-item-class="Icon Stroke Indexed ColorStrokeGray" data-item-index="7" data-renderer-id="0" transform="translate(628, 218)"><g id="1_4jtogp1tsnj7r-stroke" fill="none" stroke-linecap="round" stroke-linejoin="round" stroke-miterlimit="4" stroke="#A3A3A3" stroke-width="2"><g><path d="M 23 48C 23.6 49.599998 24.4 51.599998 26 51C 27.6 50.400002 28.4 49.599998 29 48C 29.6 46.400002 27.6 45 26 45C 24.4 45 22.6 46.400002 23 48M 11 11C 12.8 10.4 14.6 10.8 16.4 11C 17.4 11.2 17.799999 11.8 18.4 12.6C 24.200001 22 22.4 34.400002 26 45C 28.6 45.200001 31.4 45.599998 34 45M 54 32C 54.599998 30 56 27.799999 56.200001 25.6C 56.200001 25 56.200001 24.4 55.799999 23.799999C 55.400002 23.4 54.799999 23.200001 54.200001 23C 43.200001 21 31.6 25.799999 20.799999 23M 24.6 39C 27.6 39.799999 31 38.200001 34 39M 37 47C 36.799999 52.599998 41.599998 58 47 57C 52.400002 56 56 52.400002 57 47C 58 41.599998 52.400002 36.200001 47 37C 41.599998 37.799999 36 41.599998 37 47M 47 51C 46.400002 48.400002 46.599998 45.599998 47 43M 43 47C 44 48.599998 45.400002 50 47 51C 48 49.400002 49.599998 48.200001 51 47"></path><path d="M 22.998001 48C 22.998001 49.656857 24.341146 51 25.998001 51C 27.654854 51 28.998001 49.656857 28.998001 48C 28.998001 46.343147 27.654854 45 25.998001 45C 24.341146 45 22.998001 46.343147 22.998001 48ZM 11 11L 16.414 11C 17.342562 10.999468 18.149361 11.638113 18.362 12.542L 26 45L 34 45M 53.967999 32.094002L 56.122002 25.632C 56.325153 25.022055 56.222713 24.351635 55.846684 23.830189C 55.470657 23.308743 54.866886 22.999846 54.223999 23L 20.824001 23M 24.586 39L 33.947998 39M 37.001999 47C 37.001999 52.522846 41.479153 57 47.001999 57C 52.524849 57 57.001999 52.522846 57.001999 47C 57.001999 41.477154 52.524849 37 47.001999 37C 41.479153 37 37.001999 41.477154 37.001999 47ZM 47.001999 51L 47.001999 43M 43.001999 47L 47.001999 51L 51.001999 47"></path></g></g></g><g id="g-root-shie_zn6oex1tsnkll-stroke" data-item-order="0" data-item-id="shie_zn6oex1tsnkll" data-item-class="Icon Stroke Indexed ColorStrokeGray" data-item-index="5" data-renderer-id="0" transform="translate(436, 218)"><g id="shie_zn6oex1tsnkll-stroke" fill="none" stroke-linecap="round" stroke-linejoin="round" stroke-miterlimit="4" stroke="#A3A3A3" stroke-width="2"><g><path d="M 45 24C 40.799999 28.4 36.599998 33.400002 31.4 36.599998C 30.6 37.200001 29.200001 37.599998 28.6 36.599998C 27.6 35.400002 26.4 33.799999 25 33M 15 13C 15.4 12 16 10.8 17 11C 28.200001 12 39.599998 10.4 51 11C 52.200001 11 52.799999 12 53 13C 53.799999 17 52.799999 21.4 53 25.6C 53.599998 38.799999 43.799999 48 34 57C 23.200001 49.200001 15.8 38.799999 15 25.6C 14.8 21.4 14.4 17.200001 15 13"></path><path d="M 45 24L 31.42 36.68C 30.644806 37.429306 29.415194 37.429306 28.639999 36.68L 25 33M 15 13C 15 11.895431 15.895431 11 17 11L 51 11C 52.104568 11 53 11.895431 53 13L 53 25.52C 53.004192 38.727535 45.687969 50.849361 34 57C 22.312033 50.849361 14.99581 38.727535 15 25.52Z"></path></g></g></g><g id="g-root-chec_4l2mmx1tsnldv-stroke" data-item-order="0" data-item-id="chec_4l2mmx1tsnldv" data-item-class="Icon Stroke Indexed ColorStrokeGray" data-item-index="3" data-renderer-id="0" transform="translate(244, 218)"><g id="chec_4l2mmx1tsnldv-stroke" fill="none" stroke-linecap="round" stroke-linejoin="round" stroke-miterlimit="4" stroke="#A3A3A3" stroke-width="2"><g><path d="M 28.200001 44.799999C 23.799999 45 19.6 44.799999 15.2 44.799999C 12.8 44.799999 11.6 42.799999 11 40.599998C 8.6 32.400002 12.6 23.4 11 15C 10.6 12.8 13 10.6 15.2 11C 25.200001 12.8 35.599998 11 45.799999 11C 48 11 50.200001 12.8 49.799999 15C 49.200001 19.4 51.200001 24.200001 49.799999 28.4M 11 19C 23.6 21.799999 37 17.4 49.799999 19M 11 36C 17.4 35.400002 23.6 35.599998 29.799999 36M 11 27.4C 24 26.799999 37 26.4 49.799999 27.4M 26.799999 19C 27.6 27.6 26 36.200001 26.799999 44.799999M 38.200001 19C 39.200001 22 38.599998 25.200001 38.200001 28.4M 44.799999 57C 51.200001 59.200001 54.799999 51.200001 57 44.799999C 59.200001 38.400002 51.200001 30.4 44.799999 32.400002C 38.200001 34.599998 33.599998 38 32.400002 44.799999C 31.4 51.400002 38.200001 59 44.799999 57M 50 41.200001C 47.200001 43 46.400002 46.599998 44.200001 49C 44 49.400002 43.599998 49.599998 43.200001 49.799999C 42.799999 49.799999 42.200001 49.599998 42 49.200001C 41.400002 48 39.599998 47.599998 39 46.200001"></path><path d="M 28.247999 44.73L 15.122 44.73C 12.863936 44.73 11.033104 42.900063 11.032 40.641998L 11.032 15.087999C 11.033104 12.829937 12.863936 11 15.122 11L 45.785999 11C 48.043739 11 49.874001 12.830259 49.874001 15.087999L 49.874001 28.375999M 11.032 18.984001L 49.874001 18.984001M 11.032 35.950001L 29.889999 35.950001M 11.032 27.48L 49.874001 27.48M 26.898001 18.984001L 26.898001 44.73M 38.271999 18.984001L 38.271999 28.375999M 44.702 57C 51.476322 57 56.967999 51.508324 56.967999 44.733997C 56.967999 37.959671 51.476322 32.467999 44.702 32.467999C 37.927673 32.467999 32.435997 37.959671 32.435997 44.733997C 32.435997 51.508324 37.927673 56.999996 44.702 56.999996ZM 49.948002 41.178001L 44.248001 49.096001C 43.997684 49.448002 43.60453 49.671299 43.174 49.706001C 42.744537 49.736118 42.324123 49.572502 42.028 49.259998L 39.084 46.200001"></path></g></g></g><g id="g-root-tx_afficher_1q7lst51tsm7eo-stroke" data-item-order="0" data-item-id="tx_afficher_1q7lst51tsm7eo" data-item-class="Label Stroke Indexed ColorStrokeGray" data-item-index="6" data-renderer-id="0" transform="translate(490, 350)"></g><g id="g-root-tx_redirige_24r2x1tsm61b-stroke" data-item-order="0" data-item-id="tx_redirige_24r2x1tsm61b" data-item-class="Label Stroke Indexed ColorStrokeGray" data-item-index="7" data-renderer-id="0" transform="translate(580, 158)"></g><g id="g-root-tx_assurerl_1hcl9nd1tsm51l-stroke" data-item-order="0" data-item-id="tx_assurerl_1hcl9nd1tsm51l" data-item-class="Label Stroke Indexed ColorStrokeGray" data-item-index="5" data-renderer-id="0" transform="translate(400, 158)"></g><g id="g-root-tx_stockerl_zlb95l1tsm7er-stroke" data-item-order="0" data-item-id="tx_stockerl_zlb95l1tsm7er" data-item-class="Label Stroke Indexed ColorStrokeGray" data-item-index="3" data-renderer-id="0" transform="translate(208, 158)"></g><g id="g-root-data_1uqjod51tsnlzg-stroke" data-item-order="0" data-item-id="data_1uqjod51tsnlzg" data-item-class="Icon Stroke Indexed ColorStrokeGray" data-item-index="2" data-renderer-id="0" transform="translate(148, 290)"><g id="data_1uqjod51tsnlzg-stroke" fill="none" stroke-linecap="round" stroke-linejoin="round" stroke-miterlimit="4" stroke="#A3A3A3" stroke-width="2"><g><path d="M 47 50.599998C 35 51.400002 23 50.599998 11 50.599998C 15 39.799999 15.6 27.6 21 17.6C 32.799999 15.4 45 17 57 17.6C 51.200001 27.4 49.599998 39.200001 47 50.599998"></path><path d="M 47 50.5L 11 50.5L 21 17.5L 57 17.5L 47 50.5Z"></path></g></g></g><g id="g-root-cloc_hwj5091tsnjsy-stroke" data-item-order="0" data-item-id="cloc_hwj5091tsnjsy" data-item-class="Icon Stroke Indexed ColorStrokeGray" data-item-index="4" data-renderer-id="0" transform="translate(340, 290)"><g id="cloc_hwj5091tsnjsy-stroke" fill="none" stroke-linecap="round" stroke-linejoin="round" stroke-miterlimit="4" stroke="#A3A3A3" stroke-width="2"><g><path d="M 36 24C 36.799999 27.6 35.799999 31.4 36 35C 39.200001 34.400002 42.799999 34.599998 46 35M 11 28C 13.8 30.200001 15 34 17 37C 19.4 34.400002 22.200001 32 24 29M 36 53C 46.400002 51.599998 53.400002 44.400002 55 34C 56.599998 23.6 46.200001 17.6 36 15C 25.799999 12.4 16.200001 23.6 17 34C 17 35 17.200001 36 17 37"></path><path d="M 36 23.996L 36 34.996002L 46 34.996002M 11 27.983999L 17 36.984001L 24 28.983999M 36 53C 46.493412 53 55 44.493412 55 34C 55 23.50659 46.493412 15 36 15C 25.50659 15 17 23.50659 17 34L 17 36.987999"></path></g></g></g><g id="g-root-sett_1cyn6s91tsnj0o-stroke" data-item-order="0" data-item-id="sett_1cyn6s91tsnj0o" data-item-class="Icon Stroke Indexed ColorStrokeGray" data-item-index="6" data-renderer-id="0" transform="translate(532, 290)"><g id="sett_1cyn6s91tsnj0o-stroke" fill="none" stroke-linecap="round" stroke-linejoin="round" stroke-miterlimit="4" stroke="#A3A3A3" stroke-width="2"><g><path d="M 21 45C 24.4 45 27.799999 46 31 45M 11 33C 18.200001 32 25.799999 34.200001 33 33M 27 39C 26.799999 40 27.200001 41 27 42C 26.799999 43.599998 25.6 44.400002 24 45M 51 29C 52.400002 23.799999 49.400002 18 51 13C 51.400002 12 50 10.6 49 11C 37.599998 14.6 24.799999 9 13 11C 12 11.2 11.2 12 11 13C 9.2 20.799999 10.8 29 11 37C 11 38.200001 12 38.599998 13 39C 18 40.799999 24 37.200001 29 39M 42.599998 44C 42.400002 45.599998 44 46.799999 45.599998 47C 47 47 48.599998 45.599998 48.400002 44C 48 42.599998 47 41.200001 45.599998 41.200001C 44 41.200001 42.200001 42.599998 42.599998 44M 48 33C 48.200001 33.799999 48.599998 34.799999 48.799999 35.799999C 49 36.599998 50 37.400002 51 37C 52 36.799999 53 36.799999 53.799999 36.400002C 54.799999 35.799999 56.200001 36.599998 56.599998 37.599998C 57 38.599998 57.200001 39.799999 56.400002 40.599998C 55.599998 41.200001 55.200001 42.400002 54.400002 42.799999C 53.400002 43.200001 53.599998 44.599998 54.400002 45.400002C 55 46 55.799999 46.799999 56.400002 47.400002C 57 48.400002 57.200001 49.599998 56.599998 50.599998C 56 51.400002 55 52.200001 53.799999 51.799999C 53 51.400002 52 51 51 51C 50 51.200001 49.200001 51.599998 48.799999 52.400002C 48.400002 53.200001 48.200001 54.200001 48 55.200001C 47.599998 56.200001 46.599998 56.799999 45.599998 57C 44.400002 57.200001 43.799999 56 43 55.200001C 42.400002 54.400002 42.200001 53.400002 42.200001 52.400002C 42.200001 51.400002 41 51 40 51C 39 51.200001 38 51.599998 37.200001 51.799999C 36 52 34.799999 51.599998 34.400002 50.599998C 34 49.400002 33.799999 48.200001 34.599998 47.400002C 35.400002 46.799999 36.200001 46.200001 36.599998 45.400002C 37.200001 44.599998 37.599998 43.200001 36.599998 42.799999C 35.799999 42.200001 35.599998 41.200001 34.599998 40.599998C 33.799999 40 34 38.799999 34.400002 37.599998C 34.599998 36.599998 36 36.200001 37.200001 36.400002C 38 36.599998 39 36.599998 40 37C 40.799999 37.400002 41.799999 36.599998 42.200001 35.799999C 42.599998 34.799999 42.599998 33.799999 43 33C 43.599998 32 44.400002 30.799999 45.400002 31.200001C 46.599998 31.4 48 31.799999 48 33"></path><path d="M 21 45L 31 45M 11 33L 33 33M 27 39L 27 42C 27 43.656857 25.656855 45 24 45M 51 29L 51 13C 51 11.895431 50.104568 11 49 11L 13 11C 11.895431 11 11 11.895431 11 13L 11 37C 11 38.104568 11.895431 39 13 39L 29 39M 42.625999 44.062C 42.626003 45.649269 43.912735 46.936001 45.5 46.936001C 47.087269 46.936001 48.374001 45.649269 48.374001 44.062C 48.374001 42.474735 47.087269 41.188004 45.5 41.188004C 43.912735 41.188004 42.626003 42.474735 42.626003 44.062ZM 47.942001 32.940002L 48.790001 35.723999C 49.078423 36.683449 50.061653 37.254669 51.038002 37.029999L 53.862 36.375999C 54.959873 36.12854 56.09087 36.625343 56.65136 37.601265C 57.211845 38.577183 57.071003 39.804428 56.304001 40.627998L 54.327999 42.757999C 53.651917 43.492813 53.651917 44.623184 54.327999 45.357998L 56.304001 47.487999C 57.072266 48.310982 57.213787 49.53886 56.652889 50.515038C 56.091988 51.491219 54.9599 51.987293 53.862 51.737999L 51.037998 51.084C 50.06221 50.867191 49.0849 51.441875 48.799999 52.400002L 47.952 55.183998C 47.627914 56.261845 46.635513 56.999741 45.509998 56.999741C 44.384487 56.999741 43.392086 56.261845 43.068001 55.183998L 42.209999 52.400002C 41.920746 51.441208 40.93819 50.87038 39.961998 51.094002L 37.138 51.748001C 36.040096 51.997295 34.908012 51.501217 34.347111 50.52504C 33.786209 49.548859 33.927731 48.32098 34.695999 47.497997L 36.672001 45.368C 37.348076 44.633183 37.348076 43.502815 36.671997 42.767998L 34.695999 40.638C 33.928997 39.81443 33.788155 38.587181 34.34864 37.611263C 34.90913 36.635345 36.040127 36.138542 37.138 36.386002L 39.961998 37.040001C 40.938347 37.264668 41.921577 36.693451 42.209999 35.734001L 43.057999 32.950001C 43.379871 31.871485 44.370766 31.13155 45.496281 31.129246C 46.621799 31.126942 47.615715 31.862812 47.942001 32.940002Z"></path></g></g></g><g id="g-root-tx_initierl_mah7vd1tsm5tx-stroke" data-item-order="0" data-item-id="tx_initierl_mah7vd1tsm5tx" data-item-class="Label Stroke Indexed Indexed_1 ColorStrokeGray" data-item-index="1" data-renderer-id="0" transform="translate(22, 134)"></g><g id="g-root-tx_extraire_qqapzt1tsm51o-stroke" data-item-order="0" data-item-id="tx_extraire_qqapzt1tsm51o" data-item-class="Label Stroke Indexed ColorStrokeGray" data-item-index="2" data-renderer-id="0" transform="translate(106, 350)"></g><g id="g-root-tx_planifie_1cwrrix1tsm5tu-stroke" data-item-order="0" data-item-id="tx_planifie_1cwrrix1tsm5tu" data-item-class="Label Stroke Indexed ColorStrokeGray" data-item-index="4" data-renderer-id="0" transform="translate(298, 350)"></g><g id="g-root-tx_scraping_deu7mh1tsm6mm-stroke" data-item-order="0" data-item-id="tx_scraping_deu7mh1tsm6mm" data-item-class="Label Stroke Title ColorStrokeGray" data-item-index="none" data-renderer-id="0" transform="translate(94, 2)"></g><g id="g-root-2_1hfpn2x1tsnkel-stroke" data-item-order="0" data-item-id="2_1hfpn2x1tsnkel" data-item-class="Icon Stroke Indexed Indexed_1 ColorStrokeGray" data-item-index="1" data-renderer-id="0" transform="translate(52, 218)"><g id="2_1hfpn2x1tsnkel-stroke" fill="none" stroke-linecap="round" stroke-linejoin="round" stroke-miterlimit="4" stroke="#A3A3A3" stroke-width="2"><g><path d="M 11.714286 56.285713C 13.771429 53.885715 16.514286 51.828571 18.571428 49.428574C 16.171429 47.028572 14.457143 44.628574 11.714286 42.57143M 18.571428 35.714287C 19.257143 28.857143 16.857143 22 18.571428 15.142858C 18.914286 13.428572 20.285715 11.371428 22 11.714286C 27.485714 12.742857 33.657143 10.685715 39.142857 11.714286C 44.971428 17.199999 50.457146 23.028572 56.285713 28.857143C 53.542858 36.399998 55.600002 44.971428 56.285713 52.857143C 56.628574 54.57143 54.57143 55.942856 52.857143 56.285713C 50.114285 56.628574 47.028572 56.628574 44.285713 56.285713M 39.142857 11.714286C 38.457146 17.542858 39.485718 23.028572 39.142857 28.857143C 44.971428 29.542856 50.457146 28.171429 56.285713 28.857143M 25.428572 56.285713C 28.857143 55.600002 32.285713 55.257141 35.714287 56.285713"></path><path d="M 11.714286 56.285713L 18.571428 49.428574L 11.714286 42.57143M 18.571428 35.714287L 18.571428 15.142858C 18.571428 13.24931 20.106453 11.714286 22 11.714286L 39.142857 11.714286L 56.285713 28.857143L 56.285713 52.857143C 56.285713 54.750694 54.750694 56.285713 52.857143 56.285713L 44.285713 56.285713M 39.142857 11.714286L 39.142857 28.857143L 56.285713 28.857143M 25.428572 56.285713L 35.714287 56.285713"></path></g></g></g></g></g></svg>