<?xml version="1.0" encoding="utf-8" standalone="yes"?>
<!DOCTYPE svg PUBLIC "-//W3C//DTD SVG 1.1//EN" "http://www.w3.org/Graphics/SVG/1.1/DTD/svg11.dtd">
<svg width="612" height="553" viewBox="0 0 612 553" style="fill:none;stroke:none;fill-rule:evenodd;clip-rule:evenodd;stroke-linecap:round;stroke-linejoin:round;stroke-miterlimit:1.5;" version="1.1" xmlns="http://www.w3.org/2000/svg" xmlns:xlink="http://www.w3.org/1999/xlink"><style id="fontImports">@import url("https://fonts.googleapis.com/css2?family=Roboto:wght@400;700&amp;display=block");</style><rect id="" x="0" y="0" width="612" height="552" style="fill: #2c2c2c;"></rect><g id="items" style="isolation: isolate"><g id="blend" style="mix-blend-mode:screen"><g id="g-root-3.cu_sy_hu0mix1s56whv-fill" data-item-order="-84724" data-item-id="3.cu_sy_hu0mix1s56whv" data-item-class="Part Indexed Fill Stroke" data-item-index="3" data-renderer-id="0" transform="translate(337.666015625, 274.4619140625)"><g id="3.cu_sy_hu0mix1s56whv-fill" stroke="none" fill="#404b29"><g><path d="M 10.0071 113.523C 10.1785 113.471 10.35 113.42 10.5216 113.368C 17.2332 109.4816 22.3455 87.811 22.3455 61.7569C 22.3455 35.5585 17.1542 13.8288 10.388 10.1182L 10 10C 32.7658 16.8442 57.0146 21.9534 82.3337 25.5382C 88.9611 25.5382 94.3337 41.7563 94.3337 61.7624C 94.3337 81.7684 88.9611 97.9865 82.3337 97.9865C 57.2079 101.544 33.136 106.6026 10.5216 113.368C 10.519 113.37 10.5163 113.371 10.5136 113.373L 10.0071 113.523Z"></path></g></g></g><g id="g-root-3.line_sy_hu0mix1s56whw-fill" data-item-order="-84721" data-item-id="3.line_sy_hu0mix1s56whw" data-item-class="Part Indexed Stroke LeaderLine" data-item-index="3" data-renderer-id="0" transform="translate(374, 242)"></g><g id="g-root-2.cu_sy_m9u4nd1s56vpl-fill" data-item-order="-84720" data-item-id="2.cu_sy_m9u4nd1s56vpl" data-item-class="Part Indexed Fill Stroke" data-item-index="2" data-renderer-id="0" transform="translate(263.896484375, 242.6083984375)"><g id="2.cu_sy_m9u4nd1s56vpl-fill" stroke="none" fill="#2b503e"><g><path d="M 83.7774 145.376C 57.0113 153.422 32.2952 163.867 10.3 177.052L 10.7305 176.789C 18.3369 170.28 24.1029 135.487 24.1029 93.6104C 24.1029 51.5914 18.2623 16.709 10.6179 10.3704C 10.4117 10.2471 10.2057 10.1237 10 10L 10.5361 10.3037C 10.5634 10.3256 10.5907 10.3478 10.6179 10.3704C 32.5313 23.4642 57.1358 33.8462 83.7703 41.8534L 84.1575 41.9717C 90.9237 45.6823 96.115 67.412 96.115 93.6104C 96.115 119.675 90.9987 141.352 84.2832 145.226L 83.7774 145.376Z"></path></g></g></g><g id="g-root-2.line_sy_m9u4nd1s56vpm-fill" data-item-order="-84717" data-item-id="2.line_sy_m9u4nd1s56vpm" data-item-class="Part Indexed Stroke LeaderLine" data-item-index="2" data-renderer-id="0" transform="translate(302, 390.82232666015625)"></g><g id="g-root-1.cu_sy_qpnmrt1s56uxb-fill" data-item-order="-84716" data-item-id="1.cu_sy_qpnmrt1s56uxb" data-item-class="Part Indexed Indexed_1 Fill Stroke" data-item-index="1" data-renderer-id="0" transform="translate(170, 170.22412109375)"><g id="1.cu_sy_qpnmrt1s56uxb-fill" stroke="none" fill="#224754"><g><path d="M 32.0945 317.946C 30.7791 320.598 29.4085 322 28 322C 18.0589 322 10 252.156 10 166C 10 79.8436 18.0589 10 28 10C 29.2637 10 30.497 11.1286 31.6872 13.2759L 32.1311 14.1106C 50.1498 42.2836 74.6012 64.771 103.8952 82.384L 104.4325 82.6877C 112.117 88.8446 117.999 123.826 117.999 165.994C 117.999 207.871 112.233 242.664 104.6269 249.173L 104.1952 249.435C 74.818 267.045 50.2945 289.543 32.2231 317.745L 32.0945 317.946Z"></path></g></g></g><g id="g-root-1.line_sy_v5h4w91s56uww-fill" data-item-order="-84713" data-item-id="1.line_sy_v5h4w91s56uww" data-item-class="Part Indexed Indexed_1 Stroke LeaderLine" data-item-index="1" data-renderer-id="0" transform="translate(230, 146)"></g><g id="g-root-tx_processu_hvw1s91s56via-fill" data-item-order="0" data-item-id="tx_processu_hvw1s91s56via" data-item-class="Label Stroke Title ColorFillGray ColorStrokeGray" data-item-index="none" data-renderer-id="0" transform="translate(98, 2)"><g id="tx_processu_hvw1s91s56via-fill" stroke="none" fill="#A3A3A3"><g><text style="font: bold 20px Roboto, sans-serif; white-space: pre;"><tspan x="12.51" y="33.33" dominant-baseline="ideographic">Processus de recherche de produits visuels</tspan></text></g></g></g><g id="g-root-tx_reconnai_zmjl6x1s56waw-fill" data-item-order="0" data-item-id="tx_reconnai_zmjl6x1s56waw" data-item-class="Label Stroke Indexed Indexed_1" data-item-index="1" data-renderer-id="0" transform="translate(152, 86)"><g id="tx_reconnai_zmjl6x1s56waw-fill" stroke="none" fill="#A3A3A3"><g><text style="font: 20px Roboto, sans-serif; white-space: pre;"><tspan x="13.45" y="33.34" dominant-baseline="ideographic">Reconnaissance </tspan><tspan x="51.63" y="57.33" dominant-baseline="ideographic">d'image</tspan></text></g></g></g><g id="g-root-tx_affichag_1q8u4uh1s56wau-fill" data-item-order="0" data-item-id="tx_affichag_1q8u4uh1s56wau" data-item-class="Label Stroke Indexed" data-item-index="3" data-renderer-id="0" transform="translate(308, 182)"><g id="tx_affichag_1q8u4uh1s56wau-fill" stroke="none" fill="#A3A3A3"><g><text style="font: 20px Roboto, sans-serif; white-space: pre;"><tspan x="12.8" y="33.34" dominant-baseline="ideographic">Affichage des </tspan><tspan x="34.71" y="57.33" dominant-baseline="ideographic">résultats</tspan></text></g></g></g><g id="g-root-tx_tlcharge_v7ck5l1s56txd-fill" data-item-order="0" data-item-id="tx_tlcharge_v7ck5l1s56txd" data-item-class="Label Stroke" data-item-index="none" data-renderer-id="0" transform="translate(2, 290)"><g id="tx_tlcharge_v7ck5l1s56txd-fill" stroke="none" fill="#A3A3A3"><g><text style="font: 20px Roboto, sans-serif; white-space: pre;"><tspan x="20.53" y="33.34" dominant-baseline="ideographic">Téléchargement </tspan><tspan x="60.34" y="57.33" dominant-baseline="ideographic">d'image par </tspan><tspan x="67.42" y="81.33" dominant-baseline="ideographic">l'utilisateur</tspan></text></g></g></g><g id="g-root-sear_958xe11s4re9v-fill" data-item-order="0" data-item-id="sear_958xe11s4re9v" data-item-class="Icon Stroke Indexed Indexed_1 InsideFill InsideColorFill" data-item-index="1" data-renderer-id="0" transform="translate(218, 302)"></g><g id="g-root-star_qvwgsp1s4rf2i-fill" data-item-order="0" data-item-id="star_qvwgsp1s4rf2i" data-item-class="Icon Stroke Indexed InsideFill InsideColorFill" data-item-index="2" data-renderer-id="0" transform="translate(290, 302)"></g><g id="g-root-info_1hi70g91s4rf2h-fill" data-item-order="0" data-item-id="info_1hi70g91s4rf2h" data-item-class="Icon Stroke Indexed InsideFill InsideColorFill" data-item-index="3" data-renderer-id="0" transform="translate(362, 302)"></g><g id="g-root-tx_suggesti_8z03d51s56u4t-fill" data-item-order="0" data-item-id="tx_suggesti_8z03d51s56u4t" data-item-class="Label Stroke" data-item-index="none" data-renderer-id="0" transform="translate(434, 290)"><g id="tx_suggesti_8z03d51s56u4t-fill" stroke="none" fill="#A3A3A3"><g><text style="font: 20px Roboto, sans-serif; white-space: pre;"><tspan x="12" y="33.34" dominant-baseline="ideographic">Suggestions de </tspan><tspan x="12" y="57.33" dominant-baseline="ideographic">produits </tspan><tspan x="12" y="81.33" dominant-baseline="ideographic">pertinents</tspan></text></g></g></g><g id="g-root-tx_correspo_1cy03k91s56upz-fill" data-item-order="0" data-item-id="tx_correspo_1cy03k91s56upz" data-item-class="Label Stroke Indexed" data-item-index="2" data-renderer-id="0" transform="translate(224, 458.00006103515625)"><g id="tx_correspo_1cy03k91s56upz-fill" stroke="none" fill="#A3A3A3"><g><text style="font: 20px Roboto, sans-serif; white-space: pre;"><tspan x="13.35" y="33.34" dominant-baseline="ideographic">Correspondance </tspan><tspan x="18.23" y="57.33" dominant-baseline="ideographic">avec la base de </tspan><tspan x="48.52" y="81.33" dominant-baseline="ideographic">données</tspan></text></g></g></g><g id="g-root-3.cu_sy_hu0mix1s56whv-stroke" data-item-order="-84724" data-item-id="3.cu_sy_hu0mix1s56whv" data-item-class="Part Indexed Fill Stroke" data-item-index="3" data-renderer-id="0" transform="translate(337.666015625, 274.4619140625)"><g id="3.cu_sy_hu0mix1s56whv-stroke" fill="none" stroke-linecap="round" stroke-linejoin="round" stroke-miterlimit="4" stroke="#A8DD38" stroke-width="2"><g><path d="M 10.0071 113.5226C 32.7708 106.6795 57.0172 101.571 82.3337 97.9865C 88.9611 97.9865 94.3337 81.7684 94.3337 61.7624C 94.3337 41.7563 88.9611 25.5382 82.3337 25.5382C 57.0146 21.9534 32.7658 16.8442 10 10L 10.388 10.1182C 17.1541 13.8288 22.3455 35.5585 22.3455 61.7569C 22.3455 87.8214 17.2291 109.4988 10.5136 113.3729L 10.0071 113.5226Z"></path></g></g></g><g id="g-root-3.line_sy_hu0mix1s56whw-stroke" data-item-order="-84721" data-item-id="3.line_sy_hu0mix1s56whw" data-item-class="Part Indexed Stroke LeaderLine" data-item-index="3" data-renderer-id="0" transform="translate(374, 242)"><g id="3.line_sy_hu0mix1s56whw-stroke" fill="none" stroke-linecap="round" stroke-linejoin="round" stroke-miterlimit="4" stroke="#A3A3A3" stroke-width="2"><g><path d="M 10 10L 10 49.57"></path><path d="M 3.5 43.6L 10 50.1L 16.5 43.6" stroke-dasharray="none"></path></g></g></g><g id="g-root-2.cu_sy_m9u4nd1s56vpl-stroke" data-item-order="-84720" data-item-id="2.cu_sy_m9u4nd1s56vpl" data-item-class="Part Indexed Fill Stroke" data-item-index="2" data-renderer-id="0" transform="translate(263.896484375, 242.6083984375)"><g id="2.cu_sy_m9u4nd1s56vpl-stroke" fill="none" stroke-linecap="round" stroke-linejoin="round" stroke-miterlimit="4" stroke="#44E095" stroke-width="2"><g><path d="M 10.3 177.0515C 32.2952 163.8667 57.0113 153.4223 83.7774 145.376L 84.2832 145.2264C 90.9987 141.3523 96.115 119.6749 96.115 93.6104C 96.115 67.412 90.9237 45.6823 84.1575 41.9717L 83.7703 41.8534C 56.8852 33.7708 32.0685 23.2686 10 10L 10.5361 10.3037C 18.2206 16.4606 24.1029 51.4418 24.1029 93.6104C 24.1029 135.4871 18.3369 170.28 10.7305 176.7889L 10.3 177.0515Z"></path></g></g></g><g id="g-root-2.line_sy_m9u4nd1s56vpm-stroke" data-item-order="-84717" data-item-id="2.line_sy_m9u4nd1s56vpm" data-item-class="Part Indexed Stroke LeaderLine" data-item-index="2" data-renderer-id="0" transform="translate(302, 390.82232666015625)"><g id="2.line_sy_m9u4nd1s56vpm-stroke" fill="none" stroke-linecap="round" stroke-linejoin="round" stroke-miterlimit="4" stroke="#A3A3A3" stroke-width="2"><g><path d="M 10 11.997673L 10 65.177673"></path><path d="M 16.5 17.977673L 10 11.477673L 3.5 17.977673" stroke-dasharray="none"></path></g></g></g><g id="g-root-1.cu_sy_qpnmrt1s56uxb-stroke" data-item-order="-84716" data-item-id="1.cu_sy_qpnmrt1s56uxb" data-item-class="Part Indexed Indexed_1 Fill Stroke" data-item-index="1" data-renderer-id="0" transform="translate(170, 170.22412109375)"><g id="1.cu_sy_qpnmrt1s56uxb-stroke" fill="none" stroke-linecap="round" stroke-linejoin="round" stroke-miterlimit="4" stroke="#1AC6FF" stroke-width="2"><g><path d="M 10 166C 10 252.156423 18.058875 322.000002 28 322.000002C 37.941126 322.000002 46 252.156423 46 166.000002C 46 79.843581 37.941126 10.000002 28 10.000002C 18.058875 10.000002 10 79.843581 10 166.000002M 30.074219 320.97261C 45.467319 295.23131 71.154719 268.35161 104.203419 249.35271C 109.864619 246.09831 118.000519 218.34721 118.000519 166.01021C 118.000519 116.93921 110.939919 86.20591 103.552119 81.87111C 68.921119 61.55131 45.323919 34.67681 30.096419 11.04541"></path></g></g></g><g id="g-root-1.line_sy_v5h4w91s56uww-stroke" data-item-order="-84713" data-item-id="1.line_sy_v5h4w91s56uww" data-item-class="Part Indexed Indexed_1 Stroke LeaderLine" data-item-index="1" data-renderer-id="0" transform="translate(230, 146)"><g id="1.line_sy_v5h4w91s56uww-stroke" fill="none" stroke-linecap="round" stroke-linejoin="round" stroke-miterlimit="4" stroke="#A3A3A3" stroke-width="2"><g><path d="M 10 10L 10 80"></path><path d="M 3.5 74L 10 80.5L 16.5 74" stroke-dasharray="none"></path></g></g></g><g id="g-root-tx_processu_hvw1s91s56via-stroke" data-item-order="0" data-item-id="tx_processu_hvw1s91s56via" data-item-class="Label Stroke Title ColorFillGray ColorStrokeGray" data-item-index="none" data-renderer-id="0" transform="translate(98, 2)"></g><g id="g-root-tx_reconnai_zmjl6x1s56waw-stroke" data-item-order="0" data-item-id="tx_reconnai_zmjl6x1s56waw" data-item-class="Label Stroke Indexed Indexed_1" data-item-index="1" data-renderer-id="0" transform="translate(152, 86)"></g><g id="g-root-tx_affichag_1q8u4uh1s56wau-stroke" data-item-order="0" data-item-id="tx_affichag_1q8u4uh1s56wau" data-item-class="Label Stroke Indexed" data-item-index="3" data-renderer-id="0" transform="translate(308, 182)"></g><g id="g-root-tx_tlcharge_v7ck5l1s56txd-stroke" data-item-order="0" data-item-id="tx_tlcharge_v7ck5l1s56txd" data-item-class="Label Stroke" data-item-index="none" data-renderer-id="0" transform="translate(2, 290)"></g><g id="g-root-sear_958xe11s4re9v-stroke" data-item-order="0" data-item-id="sear_958xe11s4re9v" data-item-class="Icon Stroke Indexed Indexed_1 InsideFill InsideColorFill" data-item-index="1" data-renderer-id="0" transform="translate(218, 302)"><g id="sear_958xe11s4re9v-stroke" fill="none" stroke-linecap="round" stroke-linejoin="round" stroke-miterlimit="4" stroke="#1AC6FF" stroke-width="2"><g><path d="M 11.714286 30.297144C 11.712329 40.561554 20.03273 48.883545 30.297144 48.883545C 40.561554 48.883545 48.881958 40.561554 48.880001 30.297144C 48.881958 20.03273 40.561554 11.710742 30.297144 11.710742C 20.03273 11.710742 11.712329 20.03273 11.714286 30.297144M 56.285713 56.285713L 43.428574 43.428574"></path></g></g></g><g id="g-root-star_qvwgsp1s4rf2i-stroke" data-item-order="0" data-item-id="star_qvwgsp1s4rf2i" data-item-class="Icon Stroke Indexed InsideFill InsideColorFill" data-item-index="2" data-renderer-id="0" transform="translate(290, 302)"><g id="star_qvwgsp1s4rf2i-stroke" fill="none" stroke-linecap="round" stroke-linejoin="round" stroke-miterlimit="4" stroke="#44E095" stroke-width="2"><g><path d="M 11.044 19.001999C 11.044001 23.420277 19.550591 27.002001 30.044001 27.002001C 40.537411 27.002001 49.043999 23.420277 49.043999 19.001999C 49.043999 14.583722 40.537411 11.002 30.044001 11.002C 19.550591 11.002 11.044001 14.583722 11.044001 19.001999ZM 30.044001 35C 19.552 35 11.044 31.42 11.044 27M 27.044001 43.900002C 17.978001 43.299999 11.044 39.989998 11.044 36.001999M 28.044001 52.959999C 18.492001 52.537998 11.044 49.136002 11.044 45.001999L 11.044 19M 49.043999 19.001999L 49.043999 28.002001M 46.450001 33.862L 49.528 41L 55.528 41C 56.147591 40.976574 56.715263 41.344429 56.947006 41.919525C 57.178749 42.494625 57.024727 43.153294 56.562 43.566002L 51.362 48.198002L 54.242001 54.824001C 54.505165 55.447517 54.339153 56.169498 53.830082 56.615448C 53.321007 57.061398 52.583458 57.130939 52.000004 56.788002L 45.037998 52.866001L 38.077999 56.787998C 37.494904 57.124634 36.762085 57.051998 36.25642 56.607445C 35.750755 56.162895 35.584839 55.445415 35.844002 54.824001L 38.723999 48.198002L 33.524002 43.568001C 33.060646 43.156311 32.905304 42.498215 33.135658 41.922783C 33.366013 41.347351 33.932556 40.978233 34.552002 41L 40.552002 41L 43.633999 33.862C 43.913303 33.344521 44.453957 33.021957 45.042 33.021957C 45.630043 33.021957 46.170696 33.344521 46.450001 33.862Z"></path></g></g></g><g id="g-root-info_1hi70g91s4rf2h-stroke" data-item-order="0" data-item-id="info_1hi70g91s4rf2h" data-item-class="Icon Stroke Indexed InsideFill InsideColorFill" data-item-index="3" data-renderer-id="0" transform="translate(362, 302)"><g id="info_1hi70g91s4rf2h-stroke" fill="none" stroke-linecap="round" stroke-linejoin="round" stroke-miterlimit="4" stroke="#A8DD38" stroke-width="2"><g><path d="M 34 52.5C 34.276142 52.5 34.5 52.723858 34.5 53L 34.5 53C 34.5 53.276142 34.276142 53.5 34 53.5L 34 53.5C 33.723858 53.5 33.5 53.276142 33.5 53L 33.5 53C 33.5 52.723858 33.723858 52.5 34 52.5M 34 52.5L 34 52.5M 25 11L 43 11C 43 11 47 11 47 15L 47 53C 47 53 47 57 43 57L 25 57C 25 57 21 57 21 53L 21 15C 21 15 21 11 25 11M 47 49L 21 49M 47 19L 21 19M 31 15L 37 15M 35 43L 35 33C 35 31.89543 34.104568 31 33 31L 31 31M 31 43L 39 43M 33.5 26C 33.776142 26 34 26.223858 34 26.5C 34 26.776142 33.776142 27 33.5 27C 33.223858 27 33 26.776142 33 26.5C 33 26.223858 33.223858 26 33.5 26"></path></g></g></g><g id="g-root-tx_suggesti_8z03d51s56u4t-stroke" data-item-order="0" data-item-id="tx_suggesti_8z03d51s56u4t" data-item-class="Label Stroke" data-item-index="none" data-renderer-id="0" transform="translate(434, 290)"></g><g id="g-root-tx_correspo_1cy03k91s56upz-stroke" data-item-order="0" data-item-id="tx_correspo_1cy03k91s56upz" data-item-class="Label Stroke Indexed" data-item-index="2" data-renderer-id="0" transform="translate(224, 458.00006103515625)"></g></g></g></svg>