<?xml version="1.0" encoding="utf-8" standalone="yes"?>
<!DOCTYPE svg PUBLIC "-//W3C//DTD SVG 1.1//EN" "http://www.w3.org/Graphics/SVG/1.1/DTD/svg11.dtd">
<svg width="1022" height="259" viewBox="0 0 1022 259" style="fill:none;stroke:none;fill-rule:evenodd;clip-rule:evenodd;stroke-linecap:round;stroke-linejoin:round;stroke-miterlimit:1.5;" version="1.1" xmlns="http://www.w3.org/2000/svg" xmlns:xlink="http://www.w3.org/1999/xlink"><style id="fontImports">@import url("https://fonts.googleapis.com/css2?family=Roboto:wght@400;700&amp;display=block");</style><rect id="" x="0" y="0" width="1022" height="259" style="fill: #2c2c2c;"></rect><g id="items" style="isolation: isolate"><g id="blend" style="mix-blend-mode:screen"><g id="g-root-ro_hs5alj1ucqyvi-fill" data-item-order="-27648" data-item-id="ro_hs5alj1ucqyvi" data-item-class="Shape Stroke Fill" data-item-index="none" data-renderer-id="0" transform="translate(615, 30)"><g id="ro_hs5alj1ucqyvi-fill" stroke="none" fill="#2b503e"><g><path d="M 22 10L 382 10C 382 10 394 10 394 22L 394 70C 394 70 394 82 382 82L 22 82C 22 82 10 82 10 70L 10 22C 10 22 10 10 22 10"></path></g></g></g><g id="g-root-ro_4hb9bb1uco5qj-fill" data-item-order="-23400" data-item-id="ro_4hb9bb1uco5qj" data-item-class="Shape Stroke Fill" data-item-index="none" data-renderer-id="0" transform="translate(411, 45)"><g id="ro_4hb9bb1uco5qj-fill" stroke="none" fill="#505050"><g><path d="M 34 10L 142 10C 142 10 166 10 166 34L 166 136C 166 136 166 160 142 160L 34 160C 34 160 10 160 10 136L 10 34C 10 34 10 10 34 10"></path></g></g></g><g id="g-root-ro_hs5alj1ucsd1e-fill" data-item-order="-19440" data-item-id="ro_hs5alj1ucsd1e" data-item-class="Shape Stroke Fill" data-item-index="none" data-renderer-id="0" transform="translate(3, 3)"><g id="ro_hs5alj1ucsd1e-fill" stroke="none" fill="#293f64"><g><path d="M 22 10L 358 10C 358 10 370 10 370 22L 370 52C 370 52 370 64 358 64L 22 64C 22 64 10 64 10 52L 10 22C 10 22 10 10 22 10"></path></g></g></g><g id="g-root-cu_hs5alj1ucsd1f-fill" data-item-order="0" data-item-id="cu_hs5alj1ucsd1f" data-item-class="Curve Stroke ColorFillBlack ColorStrokeBlack" data-item-index="none" data-renderer-id="0" transform="translate(363, 30)"></g><g id="g-root-pers_m7yspz1ucsc95-fill" data-item-order="0" data-item-id="pers_m7yspz1ucsc95" data-item-class="Icon Stroke" data-item-index="none" data-renderer-id="0" transform="translate(321, 15)"></g><g id="g-root-2_v2zbvr1ucr0gd-fill" data-item-order="0" data-item-id="2_v2zbvr1ucr0gd" data-item-class="Icon Stroke" data-item-index="none" data-renderer-id="0" transform="translate(627, 51)"></g><g id="g-root-tx_conformi_1ha2uhz1ucqy2s-fill" data-item-order="0" data-item-id="tx_conformi_1ha2uhz1ucqy2s" data-item-class="Label Stroke" data-item-index="none" data-renderer-id="0" transform="translate(663, 42)"><g id="tx_conformi_1ha2uhz1ucqy2s-fill" stroke="none" fill="#44E095"><g><text style="font: 20px Roboto, sans-serif; white-space: pre;"><tspan x="17.44" y="34" dominant-baseline="ideographic">Conformité avec les politiques des </tspan><tspan x="106.08" y="58" dominant-baseline="ideographic">sites scrappés</tspan></text></g></g></g><g id="g-root-tx_protecti_4gos871ucr0gf-fill" data-item-order="0" data-item-id="tx_protecti_4gos871ucr0gf" data-item-class="Label Stroke" data-item-index="none" data-renderer-id="0" transform="translate(51, 69)"><g id="tx_protecti_4gos871ucr0gf-fill" stroke="none" fill="#A3A3A3"><g><text style="font: 20px Roboto, sans-serif; white-space: pre;"><tspan x="15.69" y="34" dominant-baseline="ideographic">Protection des informations </tspan><tspan x="82.73" y="58" dominant-baseline="ideographic">personnelles</tspan></text></g></g></g><g id="g-root-cu_dcbsh31ucsdtt-fill" data-item-order="0" data-item-id="cu_dcbsh31ucsdtt" data-item-class="Curve Stroke ColorFillBlack ColorStrokeBlack" data-item-index="none" data-renderer-id="0" transform="translate(321, 57)"></g><g id="g-root-cu_4gos871ucsemk-fill" data-item-order="0" data-item-id="cu_4gos871ucsemk" data-item-class="Curve Stroke ColorFillBlack ColorStrokeBlack" data-item-index="none" data-renderer-id="0" transform="translate(321, 57)"></g><g id="g-root-cu_1hr6v1ucsc92-fill" data-item-order="0" data-item-id="cu_1hr6v1ucsc92" data-item-class="Curve Stroke ColorFillBlack ColorStrokeBlack" data-item-index="none" data-renderer-id="0" transform="translate(321, 57)"></g><g id="g-root-lock_dcy9k71uco4xu-fill" data-item-order="0" data-item-id="lock_dcy9k71uco4xu" data-item-class="Icon Stroke" data-item-index="none" data-renderer-id="0" transform="translate(465, 69)"></g><g id="g-root-cu_8wiacn1ucsdu6-fill" data-item-order="0" data-item-id="cu_8wiacn1ucsdu6" data-item-class="Curve Stroke ColorFillBlack ColorStrokeBlack" data-item-index="none" data-renderer-id="0" transform="translate(567, 66)"></g><g id="g-root-cu_1hr6v1ucsc94-fill" data-item-order="0" data-item-id="cu_1hr6v1ucsc94" data-item-class="Curve Stroke ColorFillBlack ColorStrokeBlack" data-item-index="none" data-renderer-id="0" transform="translate(639, 102)"></g><g id="g-root-cu_1umsb1j1ucscub-fill" data-item-order="0" data-item-id="cu_1umsb1j1ucscub" data-item-class="Curve Stroke ColorFillBlack ColorStrokeBlack" data-item-index="none" data-renderer-id="0" transform="translate(639, 102)"></g><g id="g-root-tx_conformi_1umsb1j1ucqyo0-fill" data-item-order="0" data-item-id="tx_conformi_1umsb1j1ucqyo0" data-item-class="Label Stroke" data-item-index="none" data-renderer-id="0" transform="translate(99, 129)"><g id="tx_conformi_1umsb1j1ucqyo0-fill" stroke="none" fill="#A3A3A3"><g><text style="font: 20px Roboto, sans-serif; white-space: pre;"><tspan x="26.96" y="34" dominant-baseline="ideographic">Conformité avec les </tspan><tspan x="16.37" y="58" dominant-baseline="ideographic">réglementations sur la </tspan><tspan x="52.52" y="82" dominant-baseline="ideographic">confidentialité</tspan></text></g></g></g><g id="g-root-tx_scuritet_hs5alj1uco7bd-fill" data-item-order="0" data-item-id="tx_scuritet_hs5alj1uco7bd" data-item-class="Label Stroke" data-item-index="none" data-renderer-id="0" transform="translate(435, 123)"><g id="tx_scuritet_hs5alj1uco7bd-fill" stroke="none" fill="#A3A3A3"><g><text style="font: 20px Roboto, sans-serif; white-space: pre;"><tspan x="15.45" y="34" dominant-baseline="ideographic">Sécurité et </tspan><tspan x="12.8" y="58" dominant-baseline="ideographic">Conformité</tspan></text></g></g></g><g id="g-root-tx_vrifierl_140hrdz1ucqyo2-fill" data-item-order="0" data-item-id="tx_vrifierl_140hrdz1ucqyo2" data-item-class="Label Stroke" data-item-index="none" data-renderer-id="0" transform="translate(663, 114)"><g id="tx_vrifierl_140hrdz1ucqyo2-fill" stroke="none" fill="#A3A3A3"><g><text style="font: 20px Roboto, sans-serif; white-space: pre;"><tspan x="13.41" y="34" dominant-baseline="ideographic">Vérifier les termes et conditions</tspan></text></g></g></g><g id="g-root-tx_respecte_qp190n1ucr08z-fill" data-item-order="0" data-item-id="tx_respecte_qp190n1ucr08z" data-item-class="Label Stroke" data-item-index="none" data-renderer-id="0" transform="translate(663, 150)"><g id="tx_respecte_qp190n1ucr08z-fill" stroke="none" fill="#A3A3A3"><g><text style="font: 20px Roboto, sans-serif; white-space: pre;"><tspan x="12.3" y="34" dominant-baseline="ideographic">Respecter les directives des sites</tspan></text></g></g></g><g id="g-root-tx_rgpd_18gb9if1ucqxvt-fill" data-item-order="0" data-item-id="tx_rgpd_18gb9if1ucqxvt" data-item-class="Label Stroke" data-item-index="none" data-renderer-id="0" transform="translate(255, 213)"><g id="tx_rgpd_18gb9if1ucqxvt-fill" stroke="none" fill="#A3A3A3"><g><text style="font: 20px Roboto, sans-serif; white-space: pre;"><tspan x="14.16" y="34" dominant-baseline="ideographic">RGPD</tspan></text></g></g></g><g id="g-root-tx_scuritde_v2zbvr1ucsem8-fill" data-item-order="0" data-item-id="tx_scuritde_v2zbvr1ucsem8" data-item-class="Label Stroke" data-item-index="none" data-renderer-id="0" transform="translate(15, 18)"><g id="tx_scuritde_v2zbvr1ucsem8-fill" stroke="none" fill="#4F92FF"><g><text style="font: 20px Roboto, sans-serif; white-space: pre;"><tspan x="12.72" y="34" dominant-baseline="ideographic">Sécurité des données utilisateurs</tspan></text></g></g></g><g id="g-root-ro_hs5alj1ucqyvi-stroke" data-item-order="-27648" data-item-id="ro_hs5alj1ucqyvi" data-item-class="Shape Stroke Fill" data-item-index="none" data-renderer-id="0" transform="translate(615, 30)"><g id="ro_hs5alj1ucqyvi-stroke" fill="none" stroke-linecap="round" stroke-linejoin="round" stroke-miterlimit="4" stroke="#44E095" stroke-width="2"><g><path d="M 22 10L 382 10C 382 10 394 10 394 22L 394 70C 394 70 394 82 382 82L 22 82C 22 82 10 82 10 70L 10 22C 10 22 10 10 22 10"></path></g></g></g><g id="g-root-ro_4hb9bb1uco5qj-stroke" data-item-order="-23400" data-item-id="ro_4hb9bb1uco5qj" data-item-class="Shape Stroke Fill" data-item-index="none" data-renderer-id="0" transform="translate(411, 45)"><g id="ro_4hb9bb1uco5qj-stroke" fill="none" stroke-linecap="round" stroke-linejoin="round" stroke-miterlimit="4" stroke="#A3A3A3" stroke-width="2"><g><path d="M 34 10L 142 10C 142 10 166 10 166 34L 166 136C 166 136 166 160 142 160L 34 160C 34 160 10 160 10 136L 10 34C 10 34 10 10 34 10"></path></g></g></g><g id="g-root-ro_hs5alj1ucsd1e-stroke" data-item-order="-19440" data-item-id="ro_hs5alj1ucsd1e" data-item-class="Shape Stroke Fill" data-item-index="none" data-renderer-id="0" transform="translate(3, 3)"><g id="ro_hs5alj1ucsd1e-stroke" fill="none" stroke-linecap="round" stroke-linejoin="round" stroke-miterlimit="4" stroke="#4F92FF" stroke-width="2"><g><path d="M 22 10L 358 10C 358 10 370 10 370 22L 370 52C 370 52 370 64 358 64L 22 64C 22 64 10 64 10 52L 10 22C 10 22 10 10 22 10"></path></g></g></g><g id="g-root-cu_hs5alj1ucsd1f-stroke" data-item-order="0" data-item-id="cu_hs5alj1ucsd1f" data-item-class="Curve Stroke ColorFillBlack ColorStrokeBlack" data-item-index="none" data-renderer-id="0" transform="translate(363, 30)"><g id="cu_hs5alj1ucsd1f-stroke" fill="none" stroke-linecap="round" stroke-linejoin="round" stroke-miterlimit="4" stroke="#666666" stroke-width="2" stroke-dasharray="5.0, 7.0"><g><path d="M 58 75L 55 75L 54.9 75C 43.357246 74.999995 33.999999 65.642747 33.999998 54.099997L 34 54L 34 30.9C 33.999998 19.357248 24.64275 10 13.1 10L 13 10L 10 10"></path></g></g></g><g id="g-root-pers_m7yspz1ucsc95-stroke" data-item-order="0" data-item-id="pers_m7yspz1ucsc95" data-item-class="Icon Stroke" data-item-index="none" data-renderer-id="0" transform="translate(321, 15)"><g id="pers_m7yspz1ucsc95-stroke" fill="none" stroke-linecap="round" stroke-linejoin="round" stroke-miterlimit="4" stroke="#4F92FF" stroke-width="2"><g><path d="M 25.771429 38.778572L 25.771429 38.778572C 25.274982 38.970135 24.725018 38.970135 24.228571 38.778572L 24.228571 38.778572C 16.294128 35.667427 11.073779 28.015448 11.071428 19.492857L 11.071428 13.214286C 11.071428 12.030818 12.030818 11.071428 13.214286 11.071428L 36.785713 11.071428C 37.969181 11.071428 38.92857 12.030818 38.92857 13.214286L 38.92857 19.471428C 38.93504 28.001842 33.713154 35.664574 25.771427 38.778568ZM 19.642857 21.785713C 19.642857 24.744383 22.041332 27.142857 25 27.142857C 27.958668 27.142857 30.357141 24.744383 30.357141 21.785713C 30.357141 18.827045 27.958668 16.428572 25 16.428572C 22.041332 16.428572 19.642857 18.827045 19.642857 21.785713M 16.964285 33.978569C 18.998211 31.672316 21.924994 30.35112 25 30.35112C 28.075006 30.35112 31.001787 31.672316 33.035713 33.978573"></path></g></g></g><g id="g-root-2_v2zbvr1ucr0gd-stroke" data-item-order="0" data-item-id="2_v2zbvr1ucr0gd" data-item-class="Icon Stroke" data-item-index="none" data-renderer-id="0" transform="translate(627, 51)"><g id="2_v2zbvr1ucr0gd-stroke" fill="none" stroke-linecap="round" stroke-linejoin="round" stroke-miterlimit="4" stroke="#44E095" stroke-width="2"><g><path d="M 18.125 14.84375L 14.375 14.84375L 14.375 22.34375L 18.125 22.34375L 18.125 18.59375L 16.875 18.59375M 28.125 22.34375L 28.125 14.84375M 28.125 14.84375L 29.53125 14.84375C 30.825668 14.84375 31.875 15.893084 31.875 17.1875C 31.875 18.481918 30.825668 19.53125 29.531252 19.53125L 28.125 19.53125M 35 22.34375L 35 14.84375M 35 14.84375L 36.40625 14.84375C 37.700668 14.84375 38.750004 15.893084 38.750004 17.1875C 38.750004 18.481918 37.700668 19.53125 36.406254 19.53125L 35 19.53125M 38.75 22.34375L 35.9375 19.53125M 21.25 14.84375L 21.25 22.34375C 23.321068 22.34375 25 20.664818 25 18.59375C 25 16.522682 23.321068 14.84375 21.25 14.84375ZM 13.2475 10.9375L 38.75 10.9375M 23.872499 26.5625L 38.75 26.5625M 11.25 27.8125L 15 27.8125C 15 27.8125 15.625 27.8125 15.625 28.4375L 15.625 37.1875C 15.625 37.1875 15.625 37.8125 15 37.8125L 11.25 37.8125C 11.25 37.8125 10.625 37.8125 10.625 37.1875L 10.625 28.4375C 10.625 28.4375 10.625 27.8125 11.25 27.8125M 15.625 36.016251C 21.25 37.891251 23.65625 39.0625 25.75 39.0625C 28.75 39.0625 30.793751 37.178749 39.375 32.891251C 38.511703 31.728184 37.013474 31.228773 35.625 31.641251L 30.23 33.349998M 15.625 29.0625L 19.375 29.0625C 22.31625 29.0625 24.375 31.5625 25 31.5625L 29.375 31.5625C 30.625 31.5625 30.625 34.0625 29.375 34.0625L 22.5 34.0625"></path></g></g></g><g id="g-root-tx_conformi_1ha2uhz1ucqy2s-stroke" data-item-order="0" data-item-id="tx_conformi_1ha2uhz1ucqy2s" data-item-class="Label Stroke" data-item-index="none" data-renderer-id="0" transform="translate(663, 42)"></g><g id="g-root-tx_protecti_4gos871ucr0gf-stroke" data-item-order="0" data-item-id="tx_protecti_4gos871ucr0gf" data-item-class="Label Stroke" data-item-index="none" data-renderer-id="0" transform="translate(51, 69)"></g><g id="g-root-cu_dcbsh31ucsdtt-stroke" data-item-order="0" data-item-id="cu_dcbsh31ucsdtt" data-item-class="Curve Stroke ColorFillBlack ColorStrokeBlack" data-item-index="none" data-renderer-id="0" transform="translate(321, 57)"><g id="cu_dcbsh31ucsdtt-stroke" fill="none" stroke-linecap="round" stroke-linejoin="round" stroke-miterlimit="4" stroke="#666666" stroke-width="2" stroke-dasharray="5.0, 7.0"><g><path d="M 28 10L 28 28L 28 46L 19 46L 10 46"></path></g></g></g><g id="g-root-cu_4gos871ucsemk-stroke" data-item-order="0" data-item-id="cu_4gos871ucsemk" data-item-class="Curve Stroke ColorFillBlack ColorStrokeBlack" data-item-index="none" data-renderer-id="0" transform="translate(321, 57)"><g id="cu_4gos871ucsemk-stroke" fill="none" stroke-linecap="round" stroke-linejoin="round" stroke-miterlimit="4" stroke="#666666" stroke-width="2" stroke-dasharray="5.0, 7.0"><g><path d="M 28 10L 28 64L 28 118L 19 118L 10 118"></path></g></g></g><g id="g-root-cu_1hr6v1ucsc92-stroke" data-item-order="0" data-item-id="cu_1hr6v1ucsc92" data-item-class="Curve Stroke ColorFillBlack ColorStrokeBlack" data-item-index="none" data-renderer-id="0" transform="translate(321, 57)"><g id="cu_1hr6v1ucsc92-stroke" fill="none" stroke-linecap="round" stroke-linejoin="round" stroke-miterlimit="4" stroke="#666666" stroke-width="2" stroke-dasharray="5.0, 7.0"><g><path d="M 28 10L 28 31L 28 166C 28.000011 172.627427 22.627428 178.000011 16.00001 178.000011L 15.9 178L 10 178"></path></g></g></g><g id="g-root-lock_dcy9k71uco4xu-stroke" data-item-order="0" data-item-id="lock_dcy9k71uco4xu" data-item-class="Icon Stroke" data-item-index="none" data-renderer-id="0" transform="translate(465, 69)"><g id="lock_dcy9k71uco4xu-stroke" fill="none" stroke-linecap="round" stroke-linejoin="round" stroke-miterlimit="4" stroke="#A3A3A3" stroke-width="2"><g><path d="M 33 57L 13 57C 11.895431 57 11 56.104568 11 55L 11 13C 11 11.895431 11.895431 11 13 11L 39.580002 11C 40.112469 10.998518 40.623543 11.209428 41 11.586L 48.400002 19C 48.775097 19.374985 48.985886 19.88361 48.986 20.414L 48.986 27M 16.993999 41L 34.993999 41M 20 31L 22 31C 22.552284 31 23 31.447716 23 32L 23 41L 23 41L 19 41L 19 41L 19 32C 19 31.447716 19.447716 31 20 31ZM 31 41L 31 26C 31 25.447716 30.552284 25 30 25L 28 25C 27.447716 25 27 25.447716 27 26L 27 41M 39 33L 39 30C 39 29.447716 38.552284 29 38 29L 36 29C 35.447716 29 35 29.447716 35 30L 35 41M 40.993999 41.001999L 54.993999 41.001999C 54.993999 41.001999 56.993999 41.001999 56.993999 43.001999L 56.993999 55C 56.993999 55 56.993999 57 54.993999 57L 40.993999 57C 40.993999 57 38.993999 57 38.993999 55L 38.993999 43.001999C 38.993999 43.001999 38.993999 41.001999 40.993999 41.001999M 45.493999 49.125999C 45.493999 50.506714 46.613289 51.625999 47.993999 51.625999C 49.374714 51.625999 50.493999 50.506714 50.493999 49.125999C 50.493999 47.745289 49.374714 46.625999 47.993999 46.625999C 46.613289 46.625999 45.493999 47.745289 45.493999 49.125999M 53 38C 53 35.238579 50.761425 33 48 33C 45.238575 33 43 35.238579 43 38L 43 41L 53 41Z"></path></g></g></g><g id="g-root-cu_8wiacn1ucsdu6-stroke" data-item-order="0" data-item-id="cu_8wiacn1ucsdu6" data-item-class="Curve Stroke ColorFillBlack ColorStrokeBlack" data-item-index="none" data-renderer-id="0" transform="translate(567, 66)"><g id="cu_8wiacn1ucsdu6-stroke" fill="none" stroke-linecap="round" stroke-linejoin="round" stroke-miterlimit="4" stroke="#666666" stroke-width="2" stroke-dasharray="5.0, 7.0"><g><path d="M 10 39L 13 39L 13.1 39C 17.186179 38.986782 21.599504 37.596758 25.799998 34.999999C 28.315609 33.480487 31.277972 29.687217 34.000002 24.5C 36.722031 19.312782 39.684394 15.519512 42.200002 14C 46.400493 11.403241 50.813819 10.013218 54.899999 10.000001L 55 10L 58 10"></path></g></g></g><g id="g-root-cu_1hr6v1ucsc94-stroke" data-item-order="0" data-item-id="cu_1hr6v1ucsc94" data-item-class="Curve Stroke ColorFillBlack ColorStrokeBlack" data-item-index="none" data-renderer-id="0" transform="translate(639, 102)"><g id="cu_1hr6v1ucsc94-stroke" fill="none" stroke-linecap="round" stroke-linejoin="round" stroke-miterlimit="4" stroke="#666666" stroke-width="2" stroke-dasharray="5.0, 7.0"><g><path d="M 10 10L 10 22L 10 34L 19 34L 28 34"></path></g></g></g><g id="g-root-cu_1umsb1j1ucscub-stroke" data-item-order="0" data-item-id="cu_1umsb1j1ucscub" data-item-class="Curve Stroke ColorFillBlack ColorStrokeBlack" data-item-index="none" data-renderer-id="0" transform="translate(639, 102)"><g id="cu_1umsb1j1ucscub-stroke" fill="none" stroke-linecap="round" stroke-linejoin="round" stroke-miterlimit="4" stroke="#666666" stroke-width="2" stroke-dasharray="5.0, 7.0"><g><path d="M 10 10L 10 40L 10 70L 19 70L 28 70"></path></g></g></g><g id="g-root-tx_conformi_1umsb1j1ucqyo0-stroke" data-item-order="0" data-item-id="tx_conformi_1umsb1j1ucqyo0" data-item-class="Label Stroke" data-item-index="none" data-renderer-id="0" transform="translate(99, 129)"></g><g id="g-root-tx_scuritet_hs5alj1uco7bd-stroke" data-item-order="0" data-item-id="tx_scuritet_hs5alj1uco7bd" data-item-class="Label Stroke" data-item-index="none" data-renderer-id="0" transform="translate(435, 123)"></g><g id="g-root-tx_vrifierl_140hrdz1ucqyo2-stroke" data-item-order="0" data-item-id="tx_vrifierl_140hrdz1ucqyo2" data-item-class="Label Stroke" data-item-index="none" data-renderer-id="0" transform="translate(663, 114)"></g><g id="g-root-tx_respecte_qp190n1ucr08z-stroke" data-item-order="0" data-item-id="tx_respecte_qp190n1ucr08z" data-item-class="Label Stroke" data-item-index="none" data-renderer-id="0" transform="translate(663, 150)"></g><g id="g-root-tx_rgpd_18gb9if1ucqxvt-stroke" data-item-order="0" data-item-id="tx_rgpd_18gb9if1ucqxvt" data-item-class="Label Stroke" data-item-index="none" data-renderer-id="0" transform="translate(255, 213)"></g><g id="g-root-tx_scuritde_v2zbvr1ucsem8-stroke" data-item-order="0" data-item-id="tx_scuritde_v2zbvr1ucsem8" data-item-class="Label Stroke" data-item-index="none" data-renderer-id="0" transform="translate(15, 18)"></g></g></g></svg>